<?xml version="1.0" standalone="no"?>
<!DOCTYPE svg PUBLIC "-//W3C//DTD SVG 20010904//EN"
 "http://www.w3.org/TR/2001/REC-SVG-20010904/DTD/svg10.dtd">
<svg version="1.0" xmlns="http://www.w3.org/2000/svg"
 width="1620.000000pt" height="1214.000000pt" viewBox="0 0 1620.000000 1214.000000"
 preserveAspectRatio="xMidYMid meet">

<g transform="translate(0.000000,1214.000000) scale(0.100000,-0.100000)"
fill="#0000ff" stroke="none">
<path d="M7500 12131 c0 -5 -12 -23 -26 -40 -25 -30 -26 -34 -15 -94 5 -34 13
-140 17 -235 8 -197 9 -199 91 -189 70 8 73 15 63 142 -5 61 -9 161 -9 222 -1
62 -6 133 -13 158 l-12 45 -48 0 c-26 0 -48 -4 -48 -9z"/>
<path d="M7778 11893 c-2 -137 -1 -258 1 -270 7 -45 109 -54 132 -11 6 11 10
74 9 146 -1 70 -1 133 -1 140 3 38 86 -21 108 -76 9 -24 29 -59 45 -79 15 -20
28 -42 28 -50 0 -8 21 -36 46 -63 41 -43 52 -50 86 -50 21 0 54 6 72 14 l33
14 6 188 c4 104 7 224 7 267 l0 77 -76 0 -77 0 5 -150 c3 -82 4 -150 2 -150
-1 0 -23 14 -48 30 -31 21 -48 42 -57 68 -6 20 -21 48 -33 62 -12 14 -31 43
-41 64 -41 82 -30 76 -142 76 l-101 0 -4 -247z"/>
<path d="M8672 12092 c-12 -12 -26 -38 -31 -60 -6 -21 -19 -47 -30 -56 -10 -9
-24 -38 -30 -63 -7 -25 -23 -60 -36 -77 -13 -17 -28 -51 -34 -74 -5 -24 -16
-51 -25 -61 -8 -9 -22 -32 -30 -51 -18 -44 -7 -67 38 -76 57 -10 97 10 134 66
l33 50 67 -1 c104 -2 115 -7 124 -59 4 -25 15 -51 25 -57 22 -16 125 -17 141
-1 15 15 16 50 1 65 -6 6 -17 51 -24 101 -8 50 -23 108 -34 129 -10 22 -24 74
-30 118 -6 43 -16 84 -21 90 -6 7 -45 15 -88 18 -42 4 -89 10 -104 13 -19 4
-32 0 -46 -14z m100 -139 c9 -10 22 -42 31 -71 13 -46 13 -54 0 -67 -18 -19
-77 -19 -92 -1 -9 10 -8 28 3 74 20 88 29 98 58 65z"/>
<path d="M7000 12081 c-58 -3 -111 -10 -117 -14 -19 -12 -16 -50 13 -167 17
-68 28 -149 33 -227 8 -151 15 -164 88 -145 77 21 82 31 68 142 -9 69 -1 78
86 86 109 11 165 52 125 93 -14 13 -35 15 -110 13 -102 -3 -111 2 -122 55 -8
41 10 52 106 63 45 5 88 14 96 21 23 19 27 49 8 70 -19 21 -50 22 -274 10z"/>
<path d="M9271 12062 c-28 -20 -62 -127 -76 -247 -8 -66 -24 -146 -35 -177
-24 -69 -25 -82 -4 -102 15 -16 78 -22 108 -10 20 8 63 143 70 223 8 89 35
119 58 64 6 -16 26 -60 44 -100 19 -39 34 -81 34 -93 0 -63 71 -144 137 -156
48 -9 85 11 94 51 4 17 14 47 23 67 9 20 20 87 26 148 6 71 16 127 30 156 24
56 25 73 4 102 -13 19 -23 23 -62 20 -44 -3 -48 -6 -69 -46 -12 -24 -27 -75
-33 -115 -15 -89 -25 -117 -45 -117 -17 0 -35 38 -35 74 0 12 -13 42 -29 67
-16 24 -32 65 -35 91 -4 25 -14 52 -23 60 -31 25 -161 54 -182 40z"/>
<path d="M6430 12011 c-26 -16 -167 -41 -225 -41 -31 0 -65 -5 -76 -10 -30
-16 -26 -101 10 -197 16 -43 33 -115 40 -161 19 -143 59 -187 150 -162 54 14
62 44 31 110 -37 79 -9 113 104 129 63 9 106 25 106 39 0 10 -31 55 -44 64
-18 13 -79 8 -106 -7 -40 -23 -87 -19 -106 9 -37 57 3 99 111 116 38 6 75 16
82 22 16 13 17 70 1 86 -14 14 -56 15 -78 3z"/>
<path d="M10120 11911 c-48 -8 -150 -57 -163 -79 -5 -7 -21 -26 -37 -42 -16
-16 -31 -44 -34 -62 -24 -155 -15 -204 51 -267 32 -30 65 -50 102 -62 31 -9
73 -25 93 -33 45 -19 141 -21 156 -3 39 49 10 97 -60 97 -89 0 -198 90 -198
163 0 47 71 151 114 167 44 16 155 12 208 -7 45 -16 48 -16 68 2 40 36 20 80
-50 108 -42 18 -188 28 -250 18z"/>
<path d="M5573 11843 c-58 -32 -121 -81 -138 -107 -21 -31 -30 -132 -20 -210
6 -49 13 -65 52 -109 93 -105 227 -134 381 -83 62 21 89 37 132 78 49 47 55
57 60 103 9 91 -4 173 -34 204 -14 15 -26 32 -26 38 0 15 -79 79 -113 92 -16
6 -81 11 -145 11 -93 0 -124 -4 -149 -17z m178 -94 c48 -16 64 -33 104 -106
42 -77 44 -108 7 -159 -39 -54 -55 -65 -100 -71 -31 -4 -49 1 -86 22 -25 15
-46 31 -46 36 0 4 -15 25 -32 45 -30 34 -33 43 -33 105 0 78 14 101 81 124 48
17 62 18 105 4z"/>
<path d="M10596 11807 c-10 -7 -22 -35 -27 -62 -5 -27 -21 -67 -35 -88 -14
-21 -29 -62 -34 -91 -5 -29 -20 -69 -33 -90 -23 -32 -47 -112 -47 -151 0 -20
27 -31 91 -38 31 -3 77 -15 102 -26 63 -29 192 -48 212 -31 16 13 19 38 9 65
-9 23 -54 43 -115 51 -30 3 -64 13 -76 20 -29 18 -30 57 -2 85 17 17 28 20 58
15 20 -4 70 -10 112 -13 72 -5 78 -4 89 16 9 18 9 26 -2 38 -17 22 -107 63
-136 63 -57 0 -79 41 -46 88 20 29 50 28 124 -3 93 -39 136 -33 146 21 8 45
-7 61 -64 70 -26 3 -67 15 -91 25 -25 11 -77 24 -115 30 -39 5 -78 12 -87 14
-8 3 -23 -1 -33 -8z"/>
<path d="M4924 11655 c-27 -14 -60 -25 -74 -25 -14 0 -48 -11 -75 -24 -28 -12
-68 -26 -90 -30 -61 -11 -73 -15 -79 -32 -7 -18 15 -74 37 -92 8 -7 18 -31 22
-53 4 -22 18 -53 32 -69 13 -16 29 -47 35 -67 5 -21 22 -56 36 -77 15 -22 32
-58 37 -80 10 -40 11 -41 58 -44 37 -2 61 3 95 21 26 14 67 28 92 32 50 8 140
46 164 70 12 12 13 22 4 45 -14 42 -38 53 -74 33 -25 -13 -63 -25 -160 -49
-30 -8 -84 39 -77 67 7 27 54 55 105 63 58 9 78 23 78 52 0 69 -55 84 -145 39
-27 -13 -60 -25 -72 -25 -28 0 -63 33 -63 59 0 21 35 51 60 51 26 0 137 57
143 74 8 20 -10 73 -27 79 -8 3 -35 -5 -62 -18z"/>
<path d="M11384 11570 c-17 -11 -39 -37 -50 -57 -10 -21 -31 -53 -46 -71 -16
-18 -28 -39 -28 -46 0 -8 -16 -33 -35 -56 -19 -23 -35 -48 -35 -56 0 -7 -13
-28 -29 -46 -33 -39 -51 -71 -51 -92 0 -19 96 -70 116 -62 8 3 23 25 33 50 11
24 25 47 31 51 7 4 23 32 36 61 14 32 30 54 39 54 9 0 25 16 36 35 12 19 25
35 30 35 14 0 10 -48 -7 -82 -22 -43 -48 -232 -35 -257 12 -21 71 -36 103 -25
11 3 64 51 117 105 52 55 100 99 105 99 5 0 20 10 33 22 17 16 26 19 35 10 8
-8 4 -19 -16 -42 -14 -18 -26 -44 -26 -59 0 -16 -13 -45 -30 -66 -17 -21 -38
-63 -46 -94 -16 -54 -16 -55 6 -73 15 -12 39 -18 71 -18 52 0 69 15 69 63 0
14 7 30 16 38 19 16 49 74 58 114 4 17 16 40 27 51 11 12 26 45 34 74 8 29 23
62 34 74 40 42 24 96 -28 96 -9 0 -34 9 -56 20 -71 36 -86 29 -229 -113 -79
-78 -101 -95 -112 -86 -22 18 -17 71 16 159 17 45 30 90 30 101 0 33 -51 75
-112 93 -69 20 -66 20 -104 -4z"/>
<path d="M4355 11460 c-27 -10 -68 -28 -90 -39 -21 -12 -45 -21 -53 -21 -7 0
-34 -11 -60 -25 -26 -14 -52 -25 -59 -25 -26 0 -63 -24 -63 -41 0 -32 23 -69
46 -75 13 -3 43 2 67 11 64 24 98 18 111 -22 6 -18 23 -47 39 -64 15 -17 27
-39 27 -49 0 -10 16 -37 35 -60 19 -23 35 -51 35 -62 0 -31 53 -78 88 -78 31
0 112 46 112 63 0 5 -13 25 -30 44 -16 18 -30 40 -30 48 0 8 -13 29 -28 47
-16 18 -34 48 -40 66 -7 19 -25 49 -42 68 -16 19 -30 45 -30 58 0 22 27 56 44
56 16 0 86 62 86 76 0 18 -52 44 -87 43 -15 -1 -50 -9 -78 -19z"/>
<path d="M7652 11258 c-8 -8 -12 -48 -12 -115 0 -113 3 -105 -74 -164 -21 -16
-44 -29 -50 -29 -6 0 -26 -16 -45 -35 -18 -19 -37 -35 -42 -35 -5 0 -9 -6 -9
-14 0 -26 37 -28 107 -6 93 29 286 43 443 31 101 -7 135 -14 180 -35 30 -14
65 -26 76 -26 12 0 32 -8 45 -19 13 -10 39 -26 57 -35 40 -21 60 -37 123 -98
72 -70 91 -81 123 -68 15 5 47 10 72 10 31 0 46 5 50 15 10 24 -24 65 -71 85
-23 10 -46 24 -50 30 -4 6 -26 21 -49 31 -44 22 -115 62 -162 93 -82 55 -119
76 -129 76 -7 0 -29 14 -50 30 -21 17 -44 30 -51 30 -7 0 -25 10 -41 23 -15
12 -37 27 -48 33 -15 9 -19 21 -18 50 4 59 -8 67 -101 59 -80 -7 -81 -7 -121
25 -39 32 -110 69 -130 70 -6 0 -16 -5 -23 -12z"/>
<path d="M3818 11234 c-47 -14 -48 -15 -48 -55 0 -32 6 -47 29 -68 15 -14 38
-46 50 -69 12 -23 26 -42 31 -42 5 0 19 -19 31 -42 12 -24 30 -53 41 -64 14
-15 18 -33 16 -59 -3 -33 -9 -41 -48 -63 -36 -20 -53 -24 -83 -18 -42 8 -104
61 -129 111 -9 17 -26 39 -38 50 -12 11 -28 33 -35 50 -8 16 -33 51 -57 78
l-43 47 -48 -18 c-26 -10 -52 -23 -59 -30 -17 -17 7 -88 36 -107 13 -9 31 -33
41 -55 10 -21 24 -41 32 -44 7 -3 19 -19 26 -35 23 -55 93 -119 160 -146 79
-31 99 -31 202 0 74 23 88 31 139 84 l56 60 0 64 c0 53 -4 70 -25 98 -14 19
-31 48 -39 64 -8 17 -26 40 -40 52 -14 12 -32 37 -40 55 -15 35 -88 118 -102
117 -5 0 -30 -7 -56 -15z"/>
<path d="M12286 11208 c-32 -29 -78 -67 -136 -112 -25 -20 -59 -48 -77 -63
-83 -72 -186 -153 -195 -153 -21 0 -4 -41 27 -69 44 -38 83 -40 115 -6 38 40
81 49 140 30 75 -25 89 -53 65 -132 -6 -17 1 -30 31 -58 39 -35 70 -43 103
-25 26 13 59 97 70 174 5 36 20 90 34 119 13 29 30 89 36 134 15 95 8 118 -41
128 -18 4 -52 18 -75 31 -51 30 -65 30 -97 2z m62 -174 c2 -20 -7 -48 -26 -80
-22 -39 -34 -50 -58 -52 -41 -3 -57 11 -57 49 0 23 7 37 23 48 13 9 35 28 49
43 35 37 65 33 69 -8z"/>
<path d="M7225 11146 c-11 -7 -37 -19 -57 -25 -50 -17 -156 -124 -164 -168 -3
-18 -5 -68 -3 -112 4 -77 5 -81 44 -120 52 -54 120 -89 143 -75 29 18 25 56
-10 109 -30 45 -33 58 -36 136 l-4 86 40 46 c22 26 46 55 54 65 7 11 28 27 46
36 18 9 30 21 27 26 -9 15 -58 12 -80 -4z"/>
<path d="M8601 11000 c-8 -5 -21 -37 -28 -71 -11 -57 -11 -65 5 -82 38 -42 95
-66 177 -73 44 -4 91 -11 104 -16 35 -13 46 4 26 42 -20 38 -121 137 -150 147
-11 3 -33 16 -50 28 -38 29 -66 37 -84 25z"/>
<path d="M12787 10945 c-32 -34 -60 -68 -152 -180 -41 -49 -89 -107 -107 -127
-45 -51 -54 -82 -34 -113 13 -20 25 -25 61 -25 36 0 47 5 62 26 10 14 33 42
50 62 18 20 35 44 38 54 4 9 14 20 25 23 10 3 28 22 39 41 14 23 27 34 39 32
26 -5 19 -118 -13 -219 -25 -81 -30 -123 -19 -154 9 -23 87 -55 135 -55 31 0
42 5 56 28 10 15 29 39 43 54 14 14 57 65 95 113 39 47 89 108 113 134 23 26
42 56 42 65 0 48 -49 82 -102 71 -20 -5 -34 -18 -48 -45 -10 -20 -25 -40 -33
-43 -8 -3 -22 -21 -31 -41 -11 -23 -29 -41 -50 -50 -19 -8 -37 -19 -40 -25 -4
-6 -11 -11 -17 -11 -11 0 -12 47 -1 54 25 15 49 234 31 277 -13 33 -63 63
-121 74 -32 6 -40 3 -61 -20z"/>
<path d="M3210 10929 c-14 -11 -43 -29 -65 -40 -74 -38 -127 -68 -144 -82 -9
-8 -37 -24 -62 -35 -50 -21 -68 -56 -49 -92 14 -27 83 -27 128 0 18 11 37 20
43 20 12 0 73 -42 78 -53 2 -5 23 -32 47 -60 24 -29 58 -70 76 -91 60 -71 112
-116 137 -116 29 0 104 72 96 93 -4 8 -17 20 -31 27 -13 7 -24 17 -24 21 0 7
-126 159 -173 209 -48 50 -44 83 11 101 69 22 81 51 37 94 -30 30 -71 32 -105
4z"/>
<path d="M6798 10873 c-15 -34 -13 -275 1 -331 6 -21 19 -47 30 -56 10 -9 24
-37 31 -61 7 -24 25 -56 41 -71 16 -15 29 -33 29 -40 0 -7 11 -26 25 -42 14
-17 34 -50 45 -75 11 -24 27 -50 36 -58 9 -7 25 -32 36 -56 11 -24 24 -43 29
-43 5 0 18 -19 30 -42 12 -24 31 -54 44 -68 12 -14 34 -41 49 -61 25 -34 25
-38 11 -53 -13 -13 -40 -16 -142 -16 l-125 0 -45 48 c-24 26 -53 64 -63 84
-11 20 -24 40 -30 43 -6 3 -20 25 -31 48 -12 23 -30 51 -40 63 -10 11 -25 42
-33 68 -8 27 -24 58 -35 70 -13 14 -25 52 -37 121 -20 115 -20 126 -11 180 8
45 -3 71 -27 62 -12 -5 -16 -20 -16 -55 0 -31 -9 -70 -24 -103 -36 -79 -41
-134 -21 -210 10 -35 23 -90 30 -122 9 -37 24 -70 44 -92 17 -20 31 -41 31
-48 0 -11 64 -67 114 -101 13 -9 16 -19 12 -34 -7 -22 -8 -22 -301 -22 -221 0
-296 -3 -301 -12 -5 -7 -7 -49 -5 -93 2 -71 5 -83 30 -110 15 -16 32 -42 38
-56 14 -32 34 -55 172 -196 60 -62 127 -123 148 -138 21 -14 58 -41 83 -60 25
-19 63 -44 85 -56 22 -12 49 -29 60 -39 11 -10 31 -21 44 -25 12 -4 39 -18 58
-31 20 -13 43 -24 52 -24 10 0 32 -11 51 -25 18 -14 50 -28 69 -31 20 -4 57
-18 82 -31 25 -13 70 -26 100 -30 32 -3 63 -13 75 -25 13 -11 47 -23 84 -28
34 -5 65 -12 69 -15 3 -4 8 -93 11 -198 4 -146 2 -197 -8 -214 -15 -28 -43
-29 -67 -3 -9 10 -34 24 -54 31 -20 6 -52 21 -71 34 -19 12 -57 28 -83 34 -27
7 -59 18 -70 26 -12 7 -49 18 -82 24 -33 6 -98 22 -145 35 -47 13 -125 27
-175 30 -49 4 -130 14 -180 23 -134 24 -459 22 -700 -5 -104 -11 -224 -23
-265 -27 -41 -4 -111 -15 -155 -26 -47 -11 -151 -23 -252 -29 -94 -6 -195 -15
-225 -21 -29 -5 -172 -14 -318 -19 -293 -10 -600 0 -750 24 -52 9 -120 16
-151 16 -31 0 -91 10 -135 21 -43 12 -110 28 -148 35 -39 8 -77 21 -86 29 -9
8 -35 15 -59 15 -34 0 -47 -5 -64 -27 -63 -77 -140 -136 -242 -188 -27 -14
-57 -29 -65 -35 -28 -18 -145 -62 -204 -76 -32 -8 -68 -21 -80 -29 -12 -8 -55
-19 -95 -25 -104 -15 -209 -48 -221 -70 -16 -30 -13 -5192 3 -5213 11 -17 152
-18 2384 -17 2152 0 2373 -1 2387 -16 27 -26 20 -75 -14 -107 -34 -33 -39 -62
-11 -77 13 -6 179 -10 470 -10 434 0 451 -1 461 -19 12 -24 2 -81 -17 -88 -20
-8 -43 -57 -43 -93 0 -22 -9 -40 -29 -59 -16 -15 -34 -46 -40 -68 -7 -24 -21
-47 -36 -57 -13 -9 -28 -29 -32 -45 -18 -68 -292 -334 -380 -370 -18 -7 -38
-19 -44 -27 -9 -11 -51 -14 -198 -14 -233 -1 -321 -10 -357 -39 -15 -11 -39
-21 -54 -21 -27 0 -130 -72 -130 -90 0 -5 9 -14 20 -20 15 -8 27 -7 48 4 15 8
48 26 74 39 26 13 54 30 63 37 19 15 335 41 455 37 68 -2 82 1 140 31 103 53
150 88 243 182 74 74 127 137 127 149 0 6 9 16 21 23 11 7 30 31 41 53 11 22
31 51 43 65 13 14 28 44 34 67 7 23 18 46 27 51 17 9 43 75 44 110 0 12 11 32
25 44 14 12 28 37 31 57 4 20 11 42 17 49 12 15 302 17 342 2 l27 -10 -20 -33
c-13 -22 -21 -59 -25 -117 -3 -47 -11 -108 -18 -136 -10 -43 -9 -55 5 -82 9
-18 14 -37 11 -42 -4 -6 -3 -36 1 -67 5 -44 13 -62 35 -82 15 -14 31 -39 35
-54 3 -16 18 -36 33 -45 14 -9 34 -27 44 -39 10 -13 25 -23 32 -23 8 0 19 -9
25 -19 5 -11 27 -25 47 -32 21 -7 50 -21 64 -31 14 -11 43 -24 65 -29 89 -23
84 -23 84 4 0 31 -15 44 -69 56 -23 5 -50 16 -59 24 -9 8 -35 24 -57 35 -65
34 -195 172 -195 208 -1 11 -8 37 -16 59 -8 22 -23 68 -33 102 l-18 63 24 51
c14 29 31 86 38 128 11 63 18 80 42 98 27 22 35 23 246 23 131 0 226 4 238 10
28 15 23 52 -11 95 -30 38 -32 62 -7 93 8 10 468 12 2316 12 2273 -1 2306 0
2322 19 13 15 17 58 23 208 3 103 11 222 16 263 11 91 27 461 40 940 6 195 19
477 30 625 11 149 25 457 30 685 5 228 14 478 20 555 5 77 14 221 20 320 5 99
12 191 15 205 3 14 9 216 15 450 5 234 15 517 22 630 19 322 18 339 -13 362
-19 14 -59 24 -131 34 -57 7 -124 22 -149 33 -24 12 -53 21 -65 21 -12 0 -45
13 -75 29 -30 15 -65 32 -79 36 -14 4 -38 18 -53 31 -16 13 -33 24 -39 24 -11
0 -51 31 -123 96 -44 40 -73 76 -116 142 -24 37 -50 41 -85 13 -13 -10 -44
-22 -69 -25 -25 -4 -65 -16 -90 -27 -24 -11 -81 -24 -127 -30 -46 -5 -106 -16
-133 -24 -103 -29 -276 -37 -712 -32 -384 4 -440 7 -548 26 -66 12 -165 26
-221 31 -55 6 -134 19 -175 29 -41 11 -117 22 -169 26 -52 3 -144 13 -205 20
-259 33 -347 37 -647 32 -211 -4 -326 -10 -380 -21 -42 -8 -123 -20 -180 -26
-56 -6 -137 -22 -178 -35 -41 -13 -93 -26 -115 -30 -21 -4 -55 -15 -75 -25
-19 -9 -51 -21 -70 -25 -19 -4 -62 -22 -95 -40 -33 -17 -69 -34 -80 -38 -11
-4 -49 -25 -85 -46 -46 -28 -69 -36 -77 -29 -10 8 -13 57 -13 183 0 152 2 174
18 186 37 30 90 48 175 58 54 6 101 18 120 30 18 10 57 22 87 26 30 4 71 17
90 30 19 12 51 26 71 29 19 3 51 17 69 31 19 14 44 25 56 25 12 0 34 10 49 22
15 11 44 31 65 42 22 12 61 33 88 48 26 14 54 34 61 42 8 9 20 16 27 16 8 0
26 11 41 25 16 13 48 40 73 60 95 76 251 239 279 293 8 15 24 37 37 48 26 25
44 82 44 142 0 24 5 53 11 64 9 16 8 23 -2 29 -8 5 -152 9 -321 9 -175 0 -318
4 -332 10 -31 11 -33 37 -8 83 14 26 17 58 17 177 0 142 -1 146 -31 210 -18
36 -35 78 -39 94 -3 17 -19 46 -35 65 -120 147 -136 161 -161 145 -19 -11 -4
-123 26 -194 26 -62 27 -71 22 -180 -4 -90 -11 -130 -31 -184 -14 -37 -26 -81
-26 -96 0 -47 -21 -89 -55 -110 -29 -18 -49 -20 -184 -20 l-151 0 -12 25 c-9
20 -9 58 0 158 15 162 8 198 -47 250 -59 54 -93 52 -129 -10 -15 -26 -45 -67
-67 -91 l-40 -45 0 -97 c0 -118 -9 -135 -69 -127 -45 6 -66 28 -66 68 0 18
-14 44 -40 74 -22 25 -40 49 -40 53 -1 24 -215 212 -242 212 -6 0 -23 9 -38
20 -16 11 -48 27 -71 35 -24 9 -50 22 -59 30 -9 8 -48 21 -88 30 -40 8 -83 22
-95 30 -13 8 -68 19 -123 25 -186 19 -348 54 -387 84 -56 43 -110 101 -124
135 -8 18 -23 46 -34 61 -12 16 -22 50 -26 86 -3 32 -10 67 -15 77 -14 27 -47
21 -60 -10z m493 -522 c41 -11 99 -22 129 -26 30 -4 74 -18 97 -31 23 -13 47
-24 54 -24 16 0 166 -76 209 -106 59 -42 160 -137 188 -178 67 -96 76 -132 42
-166 -19 -19 -33 -20 -300 -20 l-280 0 -42 43 c-24 23 -59 62 -78 85 -19 23
-50 59 -67 79 -18 20 -33 41 -33 45 0 4 -14 23 -30 42 -17 18 -37 49 -45 67
-8 19 -25 47 -38 62 -29 38 -31 112 -3 133 27 20 108 18 197 -5z m2557 -749
c4 -25 -27 -81 -69 -127 -147 -160 -321 -310 -393 -340 -17 -8 -40 -23 -50
-34 -11 -12 -27 -21 -37 -21 -10 0 -30 -11 -46 -24 -16 -13 -47 -29 -69 -35
-23 -6 -49 -19 -58 -30 -9 -10 -37 -22 -61 -25 -24 -4 -54 -15 -67 -26 -13
-10 -50 -23 -82 -29 -31 -6 -68 -19 -82 -30 -17 -13 -49 -22 -100 -26 -44 -5
-90 -16 -112 -28 -31 -17 -77 -23 -302 -38 -191 -13 -291 -15 -360 -9 -52 5
-156 12 -230 15 -105 6 -148 12 -195 30 -33 13 -89 26 -124 30 -36 4 -84 18
-109 31 -25 13 -59 24 -77 24 -18 0 -44 9 -59 21 -15 12 -49 27 -77 34 -28 8
-59 21 -69 30 -10 9 -34 21 -54 26 -20 6 -52 20 -70 32 -44 29 -93 58 -130 78
-17 9 -40 26 -50 38 -11 12 -23 21 -29 21 -5 0 -26 14 -46 30 -20 17 -48 40
-64 53 -50 41 -234 227 -251 256 -12 20 -26 83 -20 93 3 4 800 7 1772 6 l1767
-3 3 -23z m-1421 -883 c11 -9 13 -139 13 -703 0 -672 -1 -693 -20 -731 -11
-21 -17 -42 -12 -47 13 -13 150 -38 208 -38 38 0 68 -7 102 -24 27 -15 74 -28
112 -32 42 -4 72 -13 86 -25 11 -11 47 -24 80 -30 32 -6 67 -15 77 -20 20 -11
54 9 129 78 54 49 102 58 132 24 10 -11 31 -23 48 -26 16 -4 45 -21 64 -37 34
-30 35 -32 28 -87 -3 -31 -15 -70 -25 -88 -18 -28 -18 -32 -4 -47 9 -9 20 -16
25 -16 4 0 27 -16 50 -35 23 -19 48 -35 55 -35 7 0 20 -11 29 -25 9 -14 21
-25 27 -25 6 0 43 -28 83 -62 125 -109 146 -129 201 -192 114 -131 120 -136
146 -136 14 0 38 11 53 25 20 18 38 25 69 25 23 0 51 3 63 6 26 7 96 -48 118
-94 9 -18 23 -35 31 -38 18 -7 20 -44 3 -66 -13 -17 -81 -69 -131 -101 -38
-25 -51 -57 -43 -111 5 -30 16 -54 35 -73 26 -25 29 -36 34 -119 6 -94 22
-149 50 -172 14 -12 17 -10 23 13 4 15 4 71 2 126 -5 90 -7 102 -31 127 -19
20 -27 42 -32 88 l-7 60 47 35 c26 18 61 46 78 60 18 14 42 31 55 38 33 18 30
66 -8 99 -16 15 -30 32 -30 40 0 7 -12 25 -27 40 -16 15 -37 45 -48 66 -24 47
-60 61 -120 47 -22 -5 -73 -18 -112 -27 l-73 -18 -54 60 c-81 89 -85 93 -178
178 -83 75 -100 88 -175 137 -18 12 -33 25 -33 30 0 6 -16 17 -35 24 -59 25
-63 44 -34 184 13 62 12 64 -10 82 -13 11 -31 19 -41 19 -10 0 -31 11 -47 24
-16 14 -43 28 -59 32 -16 3 -40 17 -54 30 -14 13 -43 26 -66 29 -40 7 -42 6
-108 -59 -36 -36 -70 -66 -74 -66 -63 3 -145 22 -168 39 -19 13 -56 24 -107
30 -43 5 -89 16 -102 25 -13 9 -57 21 -96 26 -40 6 -79 15 -86 22 -11 9 -13
91 -11 459 l3 449 39 32 c48 41 187 128 202 128 6 0 17 7 24 14 6 8 35 23 63
32 29 9 61 23 72 30 11 7 45 18 75 25 30 6 71 20 91 30 20 10 70 23 110 28 41
6 117 20 169 31 84 19 137 22 450 27 396 6 689 -7 839 -36 53 -11 132 -22 176
-26 44 -3 117 -15 162 -26 45 -11 140 -24 210 -29 71 -5 182 -18 248 -27 96
-14 191 -18 475 -18 370 0 379 1 735 57 141 22 142 22 155 -3 10 -17 11 -560
6 -2473 l-7 -2451 -34 -32 c-24 -23 -46 -33 -82 -38 -26 -3 -67 -15 -90 -25
-23 -11 -84 -26 -136 -34 -51 -9 -110 -23 -131 -31 -21 -9 -86 -20 -145 -25
-58 -5 -153 -18 -211 -30 -197 -40 -839 -37 -1021 4 -35 8 -122 20 -193 26
-76 7 -147 19 -175 30 -27 10 -81 22 -122 25 -41 4 -98 16 -128 26 -30 10 -75
21 -100 24 -25 2 -93 10 -151 16 -58 6 -132 18 -165 27 -49 13 -120 16 -380
16 -318 1 -321 1 -425 -26 -58 -16 -117 -28 -131 -28 -14 0 -46 -11 -71 -24
-25 -13 -60 -27 -79 -31 -19 -4 -46 -18 -62 -31 -25 -21 -111 -43 -123 -31 -3
3 -8 24 -11 46 -5 38 -3 43 37 80 36 33 51 39 102 45 33 3 77 14 97 24 20 10
50 25 66 33 36 18 45 63 21 111 -16 31 -16 32 16 60 44 39 86 56 152 64 l55 7
15 -37 c16 -39 46 -49 46 -16 0 11 -16 40 -35 66 -19 25 -35 50 -35 55 0 14
-33 10 -54 -6 -11 -8 -30 -15 -42 -15 -11 0 -38 -11 -58 -25 -20 -14 -55 -28
-77 -31 -22 -4 -49 -14 -60 -23 -20 -16 -20 -16 5 -49 20 -28 23 -39 15 -65
-18 -63 -40 -81 -110 -90 -35 -4 -77 -15 -93 -23 -40 -19 -54 -5 -73 77 -8 34
-22 74 -32 88 -11 14 -23 51 -27 81 -8 49 -12 55 -35 58 -35 4 -41 -15 -27
-83 8 -40 8 -58 -1 -68 -8 -10 -53 -16 -157 -21 -173 -9 -194 -2 -194 62 0 21
6 45 13 54 14 18 75 34 172 43 69 7 135 27 135 41 0 4 -7 15 -16 25 -8 9 -22
50 -30 91 -9 40 -24 90 -35 111 -10 21 -19 49 -19 62 0 37 25 36 106 -1 105
-48 204 -25 248 57 l19 35 -28 60 c-40 86 -118 168 -195 206 -14 7 -39 23 -57
36 -17 12 -66 35 -110 49 -72 24 -91 26 -243 26 -163 0 -166 0 -230 -31 -148
-70 -297 -297 -274 -417 8 -44 101 -140 178 -184 55 -30 59 -31 82 -16 13 8
24 24 24 35 0 11 7 37 15 57 8 21 21 64 30 96 15 51 22 61 51 73 47 20 68 18
102 -11 39 -33 49 -81 58 -266 6 -146 6 -147 -16 -154 -12 -4 -26 -3 -31 2
-11 11 -39 223 -39 291 0 54 -18 52 -35 -4 -6 -21 -21 -55 -33 -74 -12 -19
-22 -52 -22 -72 0 -50 -24 -62 -99 -53 -154 18 -320 156 -335 278 -8 64 8 173
28 196 8 9 21 29 30 45 31 61 164 193 233 232 l68 39 215 -1 c194 -2 220 -4
268 -23 66 -26 88 -26 102 -1 6 12 21 25 33 29 37 14 264 -7 312 -29 23 -10
69 -23 101 -29 33 -5 81 -21 108 -35 27 -14 55 -26 61 -26 16 0 112 -57 156
-93 90 -72 129 -114 144 -152 14 -39 47 -66 78 -65 7 1 24 11 38 23 167 143
180 149 218 101 43 -55 78 -3 47 71 -12 27 -19 35 -29 28 -32 -25 -47 -21
-116 35 -112 90 -128 102 -163 114 -17 6 -48 22 -66 35 -19 13 -44 23 -55 23
-11 0 -45 12 -76 26 -49 23 -74 28 -201 34 -106 6 -158 13 -195 28 -27 10 -84
23 -124 26 -41 4 -91 16 -110 26 -20 10 -56 21 -81 24 -86 13 -101 18 -120 39
-11 11 -20 31 -20 43 0 24 8 28 75 40 21 4 60 16 85 28 41 19 61 21 255 20
199 -1 214 -3 288 -28 43 -14 92 -26 110 -26 18 0 46 -9 64 -19 17 -11 51 -25
74 -31 24 -7 55 -21 69 -32 14 -11 52 -37 85 -58 112 -72 188 -163 205 -245
18 -88 25 -96 47 -56 10 18 28 47 40 65 13 17 31 44 40 60 10 16 30 43 44 60
14 17 32 48 38 69 8 24 23 43 42 52 41 22 37 49 -10 79 -21 14 -41 29 -42 34
-9 21 -148 131 -175 138 -16 4 -45 17 -64 30 -22 14 -65 26 -115 33 -44 6
-102 18 -130 27 -113 34 -435 27 -585 -12 -46 -13 -104 -18 -200 -18 -158 0
-180 7 -180 59 0 29 6 39 38 60 20 13 55 38 77 55 22 16 54 36 70 44 17 8 41
23 55 34 14 11 41 23 60 27 19 4 49 16 67 26 17 11 69 26 115 33 46 8 96 19
111 25 41 16 203 13 271 -4 32 -9 90 -20 129 -25 38 -6 81 -19 96 -29 14 -10
40 -21 56 -25 41 -9 170 -73 185 -91 7 -8 18 -15 24 -15 15 0 132 -89 170
-129 51 -54 68 -41 92 74 21 103 22 262 1 340 -9 33 -19 94 -23 135 -4 54 -14
89 -34 125 -15 28 -31 69 -35 92 -4 23 -19 58 -34 77 -15 19 -36 55 -45 80
-10 25 -22 46 -27 46 -5 0 -20 23 -34 50 -14 28 -32 53 -40 56 -8 3 -17 15
-20 25 -4 11 -23 37 -43 57 -20 21 -60 62 -88 92 -28 30 -69 71 -92 90 -24 19
-55 46 -71 60 -16 14 -44 35 -62 48 -102 68 -155 102 -163 102 -4 0 -21 11
-38 25 -16 14 -37 25 -47 25 -9 0 -32 11 -51 25 -19 14 -39 25 -46 25 -6 0
-35 13 -65 29 -30 15 -71 31 -92 35 -21 4 -53 16 -71 27 -19 11 -60 24 -91 29
-32 5 -76 18 -99 29 -23 11 -82 24 -136 30 -53 6 -110 16 -127 22 -35 12 -73
-1 -73 -25 0 -7 -11 -35 -25 -62 -14 -27 -33 -87 -41 -133 -8 -46 -26 -104
-39 -130 -25 -47 -47 -191 -29 -191 5 -1 90 -2 189 -4 155 -2 187 -5 230 -23
28 -11 76 -23 108 -27 46 -5 67 -14 98 -39 68 -56 57 -62 -133 -71 -87 -4
-117 -10 -161 -30 -30 -14 -63 -26 -73 -26 -45 0 -254 -161 -254 -196 0 -6
-14 -38 -31 -70 -17 -33 -35 -87 -41 -122 -5 -35 -23 -88 -39 -119 -21 -41
-29 -70 -30 -112 -1 -31 -4 -67 -8 -81 -9 -34 -50 -38 -85 -8 -24 20 -28 34
-37 123 -7 60 -20 122 -34 155 -16 39 -25 86 -30 160 -8 113 -16 144 -44 175
-34 38 -90 180 -101 256 -6 41 -21 95 -35 120 -13 26 -28 80 -34 124 -6 43
-23 102 -36 131 -14 30 -28 82 -31 116 -4 35 -12 69 -18 77 -14 18 -146 6
-204 -19 -23 -11 -67 -24 -97 -29 -30 -6 -79 -22 -108 -36 -30 -14 -62 -25
-73 -25 -10 0 -35 -10 -54 -21 -19 -12 -52 -28 -73 -35 -21 -7 -50 -22 -65
-32 -15 -11 -37 -23 -50 -26 -12 -4 -50 -25 -85 -47 -34 -21 -75 -46 -92 -55
-26 -15 -74 -52 -193 -151 -51 -42 -192 -184 -192 -193 0 -4 -18 -26 -40 -49
-22 -22 -40 -47 -40 -54 0 -8 -9 -22 -20 -32 -12 -11 -35 -46 -52 -78 -18 -33
-45 -69 -60 -80 -15 -11 -28 -24 -28 -29 0 -13 38 -9 78 8 96 41 527 38 609
-5 21 -10 60 -22 87 -26 27 -4 74 -21 104 -36 30 -16 62 -29 72 -29 11 0 22
-5 26 -11 3 -6 27 -20 53 -32 25 -11 60 -31 77 -43 17 -13 36 -24 41 -24 6 0
17 -7 24 -16 8 -9 30 -27 49 -39 19 -12 70 -58 113 -101 110 -112 122 -125
139 -159 9 -17 25 -38 36 -49 12 -10 24 -31 27 -48 4 -16 20 -45 37 -63 21
-24 28 -42 26 -62 -3 -27 -5 -28 -54 -26 -83 3 -196 68 -374 215 -94 78 -189
140 -270 179 -25 12 -52 27 -60 34 -8 7 -35 18 -60 25 -25 6 -59 20 -75 30
-17 10 -55 22 -85 26 -30 3 -91 15 -135 25 -103 24 -224 24 -328 0 -45 -11
-111 -24 -146 -30 -36 -6 -73 -19 -85 -29 -12 -11 -34 -24 -50 -29 -39 -12
-44 -30 -12 -43 15 -5 29 -16 32 -23 5 -14 -10 -138 -21 -174 -11 -33 33 -40
104 -18 44 15 100 19 261 23 176 4 221 1 320 -17 63 -11 153 -23 200 -27 53
-4 106 -15 142 -30 32 -13 72 -24 90 -24 18 0 60 -14 93 -30 33 -16 67 -30 76
-30 9 0 27 -9 40 -19 14 -10 41 -26 62 -35 21 -8 51 -26 68 -38 16 -13 48 -38
72 -56 56 -43 107 -94 107 -108 0 -31 -69 -31 -123 0 -23 13 -58 27 -77 31
-19 4 -55 18 -80 30 -25 12 -70 25 -101 28 -30 4 -82 16 -115 28 -134 48 -760
48 -896 1 -31 -11 -83 -23 -115 -27 -125 -14 -141 -26 -79 -63 28 -17 34 -27
38 -65 3 -27 16 -58 31 -79 14 -18 30 -53 36 -77 10 -47 72 -121 101 -121 9 0
24 17 34 37 18 38 80 98 150 146 62 41 200 107 227 107 13 0 64 9 113 20 108
24 217 25 306 4 36 -8 102 -19 146 -25 49 -5 104 -19 135 -34 30 -14 63 -25
75 -25 12 0 41 -11 65 -23 24 -13 61 -27 81 -31 39 -7 78 -45 78 -77 0 -11
-23 -33 -57 -56 l-57 -37 -210 -8 c-116 -4 -233 -12 -261 -18 -27 -6 -94 -17
-147 -24 -58 -8 -111 -22 -130 -34 -18 -11 -44 -23 -58 -27 -27 -9 -112 -69
-148 -107 -25 -25 -62 -77 -87 -121 -21 -37 -6 -63 54 -91 45 -21 72 -39 144
-97 18 -14 48 -34 67 -44 63 -31 80 -54 80 -104 0 -51 12 -77 29 -67 6 4 10
43 10 99 0 108 17 172 60 225 59 71 105 114 147 135 17 9 36 22 43 31 7 8 29
20 49 27 20 7 48 20 62 30 14 9 49 22 78 28 29 6 63 18 75 26 13 8 46 17 73
21 27 3 79 13 116 21 37 9 70 14 74 11 12 -13 -8 -66 -29 -75 -12 -6 -33 -20
-47 -32 -14 -12 -62 -52 -107 -90 -101 -83 -156 -145 -172 -192 -6 -20 -20
-53 -31 -74 -38 -74 -23 -208 33 -288 18 -27 22 -28 73 -21 43 5 67 1 126 -19
43 -14 110 -28 163 -32 50 -4 135 -13 190 -21 55 -7 137 -14 182 -14 91 0 95
-3 106 -71 4 -26 0 -46 -14 -68 -10 -17 -19 -40 -19 -50 0 -22 63 -81 88 -81
9 0 33 18 53 39 36 40 36 40 110 39 113 -1 110 3 107 -146 l-3 -127 -86 -3
-87 -3 -37 51 c-33 45 -39 49 -54 37 -28 -24 -75 -38 -157 -46 -44 -4 -91 -14
-104 -22 -14 -7 -64 -16 -111 -19 -67 -5 -91 -10 -114 -28 -32 -25 -106 -30
-124 -9 -11 13 -13 76 -4 110 2 9 18 24 34 32 42 22 38 52 -8 72 -21 8 -39 16
-41 18 -9 8 32 67 51 74 12 4 105 8 206 9 168 1 235 11 185 25 -87 26 -441 51
-511 36 -56 -11 -70 -33 -38 -59 9 -7 30 -31 47 -53 l32 -40 -28 -23 c-25 -23
-26 -25 -12 -46 21 -29 21 -111 1 -128 -19 -16 -50 -8 -105 28 -25 16 -66 33
-93 36 -26 4 -68 16 -94 28 -61 27 -305 48 -558 47 -254 0 -636 -24 -700 -43
-27 -9 -106 -20 -175 -26 -69 -6 -155 -20 -191 -30 -36 -11 -110 -24 -164 -30
-54 -6 -121 -21 -149 -32 -40 -16 -88 -22 -221 -29 -401 -19 -941 -4 -1059 30
-38 11 -103 23 -145 27 -45 4 -96 16 -126 29 -27 13 -71 26 -97 29 -26 4 -57
15 -70 25 -13 11 -42 24 -65 31 -23 7 -58 28 -78 45 l-35 33 0 2455 0 2456 21
15 c18 12 26 13 61 0 22 -8 55 -14 72 -14 18 0 59 -7 91 -16 110 -30 139 -33
455 -49 266 -14 365 -15 635 -5 422 14 586 26 668 45 37 8 116 20 175 26 59 5
132 16 162 24 151 39 835 46 995 10 39 -8 99 -20 135 -26 36 -6 90 -17 120
-26 204 -55 190 -50 367 -135 45 -22 87 -45 93 -53 6 -7 24 -18 40 -25 17 -7
33 -24 39 -42 7 -20 11 -183 11 -463 0 -461 2 -445 -50 -460 -14 -4 -33 -14
-42 -22 -10 -9 -51 -19 -100 -24 -58 -6 -90 -14 -110 -29 -16 -12 -53 -25 -84
-30 -30 -5 -66 -18 -81 -30 -18 -14 -40 -20 -75 -20 -44 0 -54 5 -113 55 -36
30 -71 55 -79 55 -7 0 -33 -13 -57 -30 -24 -16 -51 -30 -60 -30 -9 0 -33 -13
-54 -30 -21 -16 -42 -30 -47 -30 -6 0 -28 -14 -49 -31 -50 -39 -53 -78 -9
-119 52 -48 37 -78 -81 -168 -52 -39 -185 -157 -214 -189 -11 -13 -54 -59 -96
-103 l-76 -81 -143 12 -143 12 -19 -22 c-10 -13 -18 -33 -18 -45 0 -13 -12
-31 -29 -44 -22 -16 -31 -33 -36 -66 -5 -32 -14 -50 -31 -61 -13 -8 -24 -22
-24 -29 0 -22 74 -83 111 -90 19 -4 51 -23 73 -42 l38 -36 -16 -50 c-25 -77
-22 -98 13 -98 19 0 35 8 45 21 8 12 28 30 45 40 39 23 40 54 4 72 -21 11 -27
22 -27 48 -1 30 -5 35 -41 47 -22 7 -49 21 -60 31 -11 10 -30 22 -42 25 -38
12 -47 32 -30 68 8 18 18 52 22 75 5 34 14 47 42 64 32 20 44 21 148 16 124
-6 185 3 200 29 10 18 87 111 106 129 6 6 39 38 73 72 54 54 146 132 234 200
16 12 41 28 56 34 22 10 26 18 26 55 0 37 -5 47 -30 66 -22 16 -30 30 -30 52
0 34 12 43 147 110 83 42 89 43 117 16 75 -73 94 -83 151 -78 39 3 62 11 79
27 14 13 45 25 80 31 32 5 72 18 89 28 18 11 59 23 92 27 33 3 78 17 100 29
32 19 60 24 145 28 101 5 180 26 180 46 0 6 -28 15 -62 21 -34 6 -68 16 -75
23 -10 10 -13 165 -14 717 -2 638 -1 705 14 716 22 16 834 10 854 -6z m4626
-264 c21 -25 45 -61 53 -80 16 -39 46 -59 75 -50 14 5 34 -2 62 -21 23 -15 53
-35 67 -44 14 -9 46 -24 71 -33 26 -10 55 -27 64 -37 13 -14 31 -20 59 -20 23
0 64 -6 91 -14 28 -8 77 -22 110 -31 33 -9 66 -22 74 -28 16 -13 10 -200 -20
-627 -11 -151 -24 -437 -29 -635 -12 -466 -29 -853 -40 -935 -12 -90 -28 -459
-40 -934 -6 -219 -15 -433 -20 -475 -15 -116 -40 -613 -40 -785 0 -211 -12
-512 -20 -527 -10 -15 -87 -2 -103 18 -36 43 -49 53 -78 53 -16 0 -47 11 -67
25 -20 14 -40 25 -44 25 -4 0 -18 11 -32 25 -14 14 -37 25 -51 25 -15 0 -28 7
-32 18 -9 26 -34 52 -51 52 -32 0 -143 62 -152 85 -11 29 2 4965 13 4983 15
23 43 12 80 -33z m-9848 -114 c3 -5 5 -1086 5 -2402 0 -2322 -1 -2393 -19
-2413 -10 -12 -24 -32 -31 -45 -10 -20 -17 -22 -53 -17 -49 7 -51 6 -101 -61
-28 -37 -47 -53 -71 -57 -17 -4 -41 -17 -53 -31 -12 -14 -28 -25 -35 -25 -8 0
-22 -9 -32 -20 -25 -28 -59 -26 -73 5 -9 20 -12 631 -12 2449 0 2295 1 2424
18 2437 26 22 105 58 143 65 19 4 51 15 71 25 21 11 48 19 61 19 16 0 34 12
51 34 14 19 36 37 48 39 42 8 77 7 83 -2z m-537 -199 c7 -5 17 -24 22 -43 7
-22 10 -888 10 -2449 0 -1328 3 -2427 6 -2441 5 -24 3 -27 -33 -32 -23 -4 -49
-17 -63 -32 -13 -14 -29 -25 -35 -25 -6 0 -22 -11 -35 -25 -23 -25 -44 -30
-74 -19 -15 6 -16 235 -16 2498 0 2191 2 2494 15 2513 10 14 30 23 62 28 27 4
62 13 78 20 36 16 46 17 63 7z m4517 -1651 c44 -10 102 -22 129 -26 43 -6 71
-17 172 -69 46 -24 101 -66 154 -119 76 -76 106 -116 118 -161 6 -21 20 -48
31 -60 11 -12 27 -52 35 -90 8 -41 23 -77 36 -91 19 -20 23 -40 30 -134 5 -61
14 -144 20 -185 15 -89 5 -119 -38 -114 -20 2 -32 13 -47 44 -21 44 -54 89
-95 133 -14 14 -38 44 -55 66 -70 94 -309 314 -428 394 -129 86 -167 109 -243
145 -21 10 -66 31 -99 47 -33 16 -70 29 -83 29 -12 0 -39 7 -60 16 -20 9 -71
24 -112 33 -95 20 -98 38 -15 67 33 11 69 25 80 31 11 6 49 14 85 18 36 4 101
15 145 25 104 24 143 24 240 1z m1905 -341 c19 -6 73 -15 119 -20 46 -6 100
-19 121 -30 20 -10 58 -24 83 -31 25 -6 53 -20 63 -30 9 -10 22 -19 29 -19 6
0 46 -23 90 -51 66 -43 185 -154 321 -299 24 -26 32 -64 16 -74 -12 -7 -110
31 -139 54 -13 10 -38 22 -56 25 -18 4 -46 16 -64 26 -17 11 -69 26 -115 34
-46 8 -108 21 -138 30 -72 20 -238 20 -315 -1 -33 -8 -96 -21 -140 -29 -44 -7
-102 -24 -129 -39 -27 -14 -59 -26 -71 -26 -12 0 -33 -8 -46 -19 -13 -10 -44
-28 -69 -40 -41 -19 -71 -39 -138 -89 -31 -22 -84 -70 -154 -138 -46 -45 -63
-55 -85 -52 l-28 3 1 96 c1 82 5 105 28 155 15 32 30 78 33 103 4 27 17 56 33
75 15 17 31 42 35 56 13 43 112 151 185 204 90 63 159 95 237 107 43 6 98 15
123 19 68 11 131 11 170 0z m-516 -2637 c4 -9 11 -57 16 -107 8 -80 8 -92 -7
-103 -21 -16 -35 -16 -57 0 -16 12 -18 25 -14 109 4 97 16 132 43 122 7 -3 16
-13 19 -21z m-5337 -66 c13 -6 54 -31 93 -54 38 -24 76 -43 83 -43 8 0 36 -12
63 -26 26 -14 72 -30 100 -34 29 -5 72 -18 96 -28 24 -11 77 -23 118 -27 41
-4 124 -18 183 -31 103 -24 128 -25 565 -30 349 -4 468 -9 502 -20 25 -7 70
-16 100 -20 48 -5 62 -2 105 21 43 24 66 28 167 34 106 6 120 9 144 32 25 23
32 24 212 30 103 3 188 7 190 7 10 7 -2 32 -18 37 -11 3 -20 10 -20 14 0 12
350 22 395 11 22 -5 130 -10 240 -10 179 0 207 2 260 21 52 18 77 21 191 17
124 -3 134 -5 171 -31 21 -15 51 -27 65 -27 41 0 76 -17 83 -39 3 -12 15 -21
25 -21 53 0 65 -26 24 -50 -15 -8 -32 -30 -38 -50 -9 -28 -19 -38 -55 -51 -24
-8 -51 -26 -60 -38 l-17 -22 -936 0 c-925 0 -937 0 -982 20 -65 30 -190 29
-254 -1 l-47 -23 -792 3 c-756 2 -796 3 -855 22 -86 27 -188 27 -211 0 -9 -11
-27 -20 -39 -21 -140 -5 -502 1 -510 9 -11 11 52 77 103 107 18 11 42 26 54
32 11 7 34 13 51 13 25 0 42 11 82 55 28 30 58 55 65 55 7 0 24 11 37 25 13
14 35 25 49 25 42 0 71 11 71 27 0 7 15 23 34 34 19 11 36 29 39 39 6 23 40
26 74 7z m9783 -46 c39 -11 38 -46 -2 -68 l-33 -18 27 -3 c14 -2 52 4 83 12
49 13 57 13 62 0 3 -8 20 -22 37 -30 30 -16 49 -31 106 -87 20 -19 45 -31 80
-36 28 -5 60 -17 73 -29 12 -11 34 -24 49 -27 33 -8 60 -71 37 -86 -8 -5 -120
-10 -249 -11 -331 -4 -348 -3 -381 21 -39 29 -175 29 -280 1 -70 -18 -109 -20
-725 -20 -612 0 -657 1 -745 20 -126 27 -227 26 -280 -1 -41 -20 -50 -20 -986
-20 -519 0 -948 3 -954 6 -18 12 -8 31 22 42 32 12 36 35 7 41 -16 3 -43 -18
-50 -40 -7 -21 -80 14 -99 47 -30 51 -33 81 -11 101 11 11 25 29 31 41 8 16
24 25 52 29 22 4 46 15 53 26 16 22 70 37 133 38 23 0 48 7 57 15 34 34 66 37
431 30 449 -7 469 -10 388 -49 -33 -16 -35 -19 -19 -28 10 -5 91 -11 179 -12
155 -1 164 -2 213 -28 40 -21 71 -28 149 -34 75 -5 108 -13 144 -32 49 -26 67
-26 324 -5 52 4 77 2 77 -5 0 -6 -13 -13 -30 -17 -35 -8 -48 -24 -29 -36 16
-11 126 -7 244 9 44 6 197 13 340 17 276 6 315 9 410 31 33 8 122 19 198 24
78 6 165 19 201 30 34 11 98 25 141 31 44 6 95 19 114 29 20 10 66 22 103 28
36 6 78 18 92 28 47 30 153 42 216 25z m-6242 -30 c11 -7 11 -9 0 -12 -26 -8
-298 3 -298 12 0 11 280 12 298 0z m1352 -70 l38 -43 45 26 c41 24 50 26 84
17 21 -6 49 -11 62 -11 14 0 44 -10 69 -21 24 -12 62 -27 85 -34 73 -22 79
-38 65 -200 -10 -122 -14 -144 -35 -168 -12 -16 -23 -33 -23 -38 0 -5 -9 -18
-20 -29 -18 -18 -33 -20 -152 -20 -136 0 -208 12 -208 33 0 7 7 32 16 57 12
34 16 82 15 204 0 87 -3 161 -6 164 -26 26 -59 -109 -71 -290 -6 -101 -8 -108
-36 -135 l-29 -28 -409 0 c-302 0 -412 3 -421 12 -15 15 10 82 49 130 44 56
164 174 202 199 19 13 46 31 60 40 14 9 36 25 50 34 14 9 49 25 78 34 28 10
52 21 52 26 0 11 22 18 98 30 37 6 78 18 92 27 37 24 78 32 149 29 62 -2 66
-4 101 -45z m606 -216 c17 -12 52 -43 77 -70 26 -28 60 -64 77 -82 16 -18 30
-41 30 -51 0 -11 10 -32 21 -47 27 -33 18 -41 -60 -51 -74 -9 -259 2 -277 17
-21 17 -18 76 5 88 26 15 33 34 41 129 4 53 12 87 20 92 15 9 16 8 66 -25z"/>
<path d="M7905 7436 c-8 -11 -15 -36 -15 -56 0 -33 -4 -37 -63 -65 -34 -16
-61 -34 -60 -40 1 -5 20 -14 42 -18 55 -11 94 8 101 48 3 19 23 46 55 75 l50
46 88 -6 c78 -4 91 -8 108 -29 11 -13 21 -34 24 -47 3 -13 7 -35 10 -49 6 -27
59 -47 113 -43 36 3 33 18 -13 52 -26 20 -33 34 -38 72 -8 75 -10 75 -211 78
-169 3 -178 2 -191 -18z"/>
<path d="M8120 6495 c0 -15 26 -20 54 -9 28 11 17 24 -19 24 -24 0 -35 -5 -35
-15z"/>
<path d="M7917 6352 c-5 -20 8 -51 17 -41 3 3 7 16 8 29 4 28 -17 38 -25 12z"/>
<path d="M5985 5990 c-3 -5 3 -10 15 -10 12 0 18 5 15 10 -3 6 -10 10 -15 10
-5 0 -12 -4 -15 -10z"/>
<path d="M5643 5714 c-3 -8 0 -21 6 -27 10 -9 16 -8 26 7 8 10 12 23 9 27 -9
15 -34 10 -41 -7z"/>
<path d="M10359 5615 c0 -5 0 -72 1 -149 1 -117 -1 -144 -16 -172 -17 -31 -17
-35 -2 -50 19 -19 82 -33 151 -34 45 0 49 -2 63 -35 27 -65 12 -205 -24 -224
-9 -4 -79 -11 -154 -14 -133 -6 -138 -5 -153 16 -8 12 -15 29 -15 39 0 29 -19
31 -30 3 -6 -15 -12 -72 -14 -128 -4 -107 -18 -162 -42 -171 -8 -3 -23 -26
-34 -50 -10 -25 -28 -49 -39 -55 -10 -6 -24 -26 -31 -45 -6 -19 -22 -42 -36
-51 -14 -9 -29 -27 -34 -41 -5 -13 -14 -24 -19 -24 -5 0 -25 -21 -46 -46 l-37
-45 18 -37 c10 -20 33 -53 50 -72 17 -19 36 -55 43 -80 12 -40 11 -46 -4 -55
-10 -5 -29 -19 -44 -31 -14 -12 -40 -28 -57 -37 -17 -9 -36 -23 -43 -31 -18
-22 -54 -20 -76 4 -10 11 -27 23 -39 26 -11 4 -35 18 -53 31 -17 14 -54 30
-82 38 -66 17 -94 1 -89 -53 3 -34 5 -37 33 -35 17 1 42 4 57 8 21 6 34 1 58
-19 18 -14 37 -26 43 -26 7 0 30 -14 51 -30 65 -49 69 -47 270 98 17 12 46 32
64 43 35 23 40 40 16 60 -8 7 -24 30 -35 51 -11 21 -30 45 -44 54 -24 15 -43
70 -36 104 2 14 39 56 108 124 17 17 35 44 38 59 4 16 18 35 31 43 13 9 28 32
35 52 6 20 24 49 39 64 16 16 30 44 34 65 4 26 19 50 45 76 l39 39 114 8 c119
9 175 22 196 48 8 11 12 57 12 147 0 157 3 153 -123 189 -112 33 -131 43 -121
64 11 24 17 157 9 208 -6 39 -43 103 -46 79z"/>
<path d="M5708 5593 c-27 -31 -37 -58 -27 -74 13 -21 11 -82 -3 -102 -10 -13
-37 -18 -116 -23 -150 -10 -147 -6 -147 -191 l0 -148 -27 -3 c-16 -2 -33 4
-45 16 -10 11 -35 25 -56 31 -20 7 -42 21 -47 32 -6 10 -30 24 -55 30 -27 7
-50 20 -60 35 -16 25 -39 31 -50 13 -11 -17 76 -98 113 -105 18 -3 35 -10 38
-15 3 -5 24 -19 46 -30 22 -11 55 -35 73 -53 17 -18 58 -46 90 -62 32 -16 61
-36 66 -44 26 -53 59 -162 60 -200 1 -55 21 -115 39 -115 20 0 32 53 25 113
-6 60 4 85 48 123 30 25 30 25 17 77 -6 29 -16 54 -20 57 -4 3 -19 -13 -34
-35 -57 -86 -102 -34 -89 102 5 62 4 71 -21 106 -35 51 -48 159 -22 185 26 25
103 23 132 -4 l23 -22 36 29 c19 16 50 41 69 57 19 15 48 30 65 33 39 8 41 24
3 24 -47 0 -62 27 -62 108 0 69 -1 72 -23 72 -13 0 -31 -8 -39 -17z m-220
-574 c3 -19 -21 -31 -43 -23 -8 4 -15 15 -15 26 0 15 6 19 27 16 16 -2 29 -10
31 -19z"/>
<path d="M5571 5564 c-25 -32 -14 -54 29 -54 46 0 54 22 21 54 l-28 27 -22
-27z"/>
<path d="M4902 5343 c-7 -3 -19 -18 -27 -33 -11 -22 -28 -32 -69 -44 -30 -9
-71 -16 -91 -16 -67 0 -27 -17 56 -24 78 -6 84 -5 108 17 14 14 42 30 62 37
32 12 42 11 73 -4 42 -20 64 -18 79 6 20 30 -9 49 -72 47 -31 -1 -67 3 -81 8
-14 6 -31 8 -38 6z"/>
<path d="M11554 5333 c-6 -4 -17 -21 -25 -38 -12 -25 -22 -31 -74 -40 -74 -13
-54 -25 41 -25 59 0 67 3 104 36 l40 36 48 -19 c45 -19 47 -21 48 -60 1 -45 9
-63 28 -63 7 0 25 -11 39 -24 14 -13 44 -27 67 -31 22 -4 46 -15 53 -25 7 -10
26 -24 41 -32 28 -12 60 -38 118 -95 24 -24 31 -25 81 -20 87 11 115 1 127
-42 15 -54 13 -58 -27 -78 -34 -16 -38 -23 -41 -59 -2 -28 3 -48 16 -64 24
-30 40 -19 48 32 5 26 20 56 46 85 23 26 37 52 34 60 -3 8 -6 24 -6 35 0 11
-15 35 -34 54 -32 32 -38 34 -104 34 -92 0 -130 8 -137 31 -3 10 -14 21 -24
24 -10 3 -33 19 -50 35 -17 17 -38 30 -47 30 -9 0 -29 11 -46 25 -16 14 -39
25 -51 25 -12 0 -27 4 -34 8 -17 11 -33 58 -33 97 0 53 -21 66 -104 65 -39 0
-84 2 -101 5 -16 3 -35 2 -41 -2z"/>
<path d="M4193 5270 c-33 -14 -31 -50 3 -50 39 0 121 -39 139 -66 18 -27 37
-31 55 -9 7 9 29 15 54 15 57 0 116 18 116 35 0 24 -47 29 -138 15 -80 -13
-86 -13 -96 4 -33 55 -84 77 -133 56z"/>
<path d="M10883 5273 c-13 -2 -28 -12 -35 -22 -7 -10 -27 -25 -45 -34 l-32
-17 6 -89 c5 -79 4 -90 -14 -108 -11 -11 -26 -22 -32 -24 -6 -2 -13 -18 -14
-34 -3 -41 31 -41 58 1 11 17 32 38 48 47 27 16 27 16 25 119 l-3 103 60 -3
c54 -3 63 -7 90 -37 27 -30 33 -32 55 -23 14 7 53 12 87 12 45 1 67 6 80 18
21 22 15 28 -35 35 -25 3 -49 0 -69 -10 -43 -23 -106 -3 -133 41 -20 32 -37
37 -97 25z"/>
<path d="M5587 5253 c-13 -12 -7 -33 8 -33 8 0 15 9 15 20 0 20 -11 26 -23 13z"/>
<path d="M4064 5195 c-8 -21 14 -45 40 -45 27 0 46 18 46 42 0 14 -8 18 -40
18 -27 0 -43 -5 -46 -15z"/>
<path d="M10106 5151 c-9 -14 4 -41 19 -41 21 0 28 19 15 35 -14 17 -26 19
-34 6z"/>
<path d="M4119 5068 c-9 -31 -30 -60 -77 -104 -49 -47 -63 -67 -60 -85 2 -16
11 -25 25 -27 18 -3 27 5 40 32 9 20 21 36 25 36 5 0 26 17 47 38 22 20 47 43
56 51 12 10 15 22 11 44 -14 68 -50 76 -67 15z"/>
<path d="M5860 5092 c-8 -2 -22 -10 -30 -17 -8 -7 -26 -16 -40 -20 -14 -4 -33
-14 -43 -23 -16 -14 -16 -17 -1 -41 9 -14 32 -40 50 -58 26 -25 34 -40 34 -68
0 -39 12 -68 40 -100 10 -11 23 -39 29 -62 7 -23 20 -48 30 -55 10 -7 28 -32
40 -55 11 -23 30 -47 41 -53 24 -13 27 -58 5 -66 -8 -3 -24 -22 -36 -42 -12
-21 -36 -51 -52 -69 -22 -24 -31 -44 -35 -81 -4 -45 -2 -51 23 -68 15 -11 37
-28 49 -40 11 -12 36 -29 54 -38 17 -9 32 -20 32 -25 0 -5 15 -18 33 -30 17
-11 39 -26 48 -32 13 -10 22 -8 44 9 16 13 42 22 61 22 42 0 44 15 8 76 -29
49 -39 54 -49 24 -4 -11 -17 -28 -31 -36 -22 -15 -26 -15 -46 0 -13 9 -45 32
-73 51 -82 58 -93 94 -42 151 17 21 37 51 42 68 10 33 38 44 65 27 8 -6 17
-32 20 -61 3 -28 10 -50 15 -50 12 0 14 244 3 256 -5 4 -17 -1 -27 -10 -32
-29 -62 -17 -79 32 -7 23 -22 47 -33 52 -10 6 -23 28 -29 51 -6 22 -24 51 -39
65 -20 18 -31 39 -36 70 -4 28 -17 57 -36 78 -23 26 -29 43 -29 78 0 38 4 47
25 56 36 16 31 46 -5 34z"/>
<path d="M4520 5043 c-8 -3 -24 -13 -35 -23 -11 -10 -37 -21 -59 -24 -21 -4
-48 -18 -60 -31 -12 -12 -38 -30 -58 -38 -20 -8 -39 -25 -43 -36 -3 -12 -20
-28 -36 -36 -16 -9 -31 -26 -35 -40 -3 -13 -21 -36 -40 -50 -28 -21 -34 -33
-34 -64 0 -40 14 -61 41 -61 13 0 18 13 24 55 5 43 12 59 31 71 13 9 30 28 37
42 17 36 125 119 165 128 18 3 40 17 48 29 12 18 26 23 82 27 37 3 81 12 97
21 l30 15 -28 11 c-29 11 -101 14 -127 4z"/>
<path d="M4873 5043 c-68 -13 21 -53 117 -53 33 0 40 3 40 20 0 34 -74 49
-157 33z"/>
<path d="M11180 5031 c-21 -18 -23 -22 -10 -31 19 -14 110 -6 145 13 36 18 21
27 -53 34 -48 4 -61 2 -82 -16z"/>
<path d="M11553 5043 c-61 -13 15 -53 99 -53 88 1 66 51 -24 56 -29 1 -63 0
-75 -3z"/>
<path d="M11725 4990 c-10 -16 13 -47 41 -54 41 -11 123 -80 198 -168 25 -28
52 -19 49 17 -3 32 -52 82 -140 141 -29 19 -53 39 -53 43 0 9 -53 31 -76 31
-7 0 -16 -4 -19 -10z"/>
<path d="M5040 4981 c0 -17 32 -42 62 -48 16 -3 33 -14 39 -25 6 -11 24 -24
39 -30 16 -5 32 -19 35 -29 4 -11 18 -25 32 -32 15 -7 33 -29 44 -54 13 -31
24 -43 39 -43 16 0 20 6 20 36 0 31 -8 44 -52 86 -29 27 -64 60 -78 73 -14 14
-30 25 -36 25 -6 0 -20 11 -32 25 -17 20 -31 25 -67 25 -25 0 -45 -4 -45 -9z"/>
<path d="M11048 4971 c-7 -10 -27 -25 -44 -34 -33 -17 -164 -140 -164 -154 0
-5 6 -17 13 -27 18 -24 45 -11 62 30 8 19 19 34 24 34 9 0 35 22 107 90 12 11
28 20 35 20 22 0 59 29 59 46 0 22 -75 19 -92 -5z"/>
<path d="M10652 4888 c-7 -7 -12 -20 -12 -29 0 -31 -30 -43 -107 -45 -80 -2
-111 -18 -99 -49 5 -14 13 -16 39 -10 17 4 57 8 88 9 88 2 166 67 145 121 -7
18 -37 20 -54 3z"/>
<path d="M3920 4824 c-25 -8 -66 -14 -92 -14 -88 0 -146 -84 -117 -168 9 -25
18 -33 47 -38 80 -13 76 -7 91 -133 11 -84 34 -122 49 -80 12 33 23 172 14
185 -4 6 -19 17 -33 25 -90 49 -99 59 -99 105 0 57 20 69 108 60 71 -7 92 2
92 40 0 31 -8 34 -60 18z"/>
<path d="M12014 4714 c-8 -31 14 -104 34 -112 8 -2 18 1 23 9 12 19 11 86 -1
110 -16 28 -48 24 -56 -7z"/>
<path d="M10384 4706 c-14 -23 -15 -30 -3 -57 13 -32 58 -59 98 -59 13 0 27
-12 36 -30 17 -33 52 -41 62 -14 7 19 -58 88 -107 112 -21 10 -37 27 -40 41
-8 34 -26 37 -46 7z"/>
<path d="M10802 4714 c-18 -13 -22 -25 -22 -73 0 -64 22 -108 39 -81 11 16 31
100 31 129 0 31 -23 43 -48 25z"/>
<path d="M5359 4663 c-5 -130 0 -326 9 -335 7 -7 17 -3 31 11 19 19 21 32 21
167 0 151 -7 184 -40 184 -15 0 -20 -7 -21 -27z"/>
<path d="M4224 4643 l-31 -4 0 -124 c1 -143 -6 -134 107 -142 58 -4 78 -2 87
9 17 19 4 35 -42 50 -49 16 -47 29 5 46 53 18 54 46 3 62 -59 19 -60 28 -9 50
34 14 47 25 44 37 -3 15 -15 18 -68 19 -36 1 -79 -1 -96 -3z"/>
<path d="M4510 4625 c-41 -30 -54 -50 -43 -69 11 -20 81 -74 104 -81 37 -12
18 -40 -31 -45 -51 -6 -70 -15 -70 -35 0 -18 23 -25 78 -25 55 0 107 28 124
65 19 41 -10 89 -63 106 -57 19 -61 37 -10 45 94 15 92 64 -3 64 -37 -1 -60
-7 -86 -25z"/>
<path d="M4743 4634 c-4 -11 4 -25 25 -43 31 -25 32 -28 32 -108 0 -82 12
-113 44 -113 27 0 36 26 36 106 l0 83 35 27 c65 49 45 64 -81 64 -69 0 -86 -3
-91 -16z"/>
<path d="M5020 4640 c-12 -8 -14 -31 -11 -127 1 -65 8 -124 14 -131 8 -10 32
-13 89 -10 64 3 80 7 98 26 11 12 27 22 35 22 25 0 45 42 45 95 0 59 -3 64
-54 104 -36 29 -44 31 -120 31 -44 0 -88 -5 -96 -10z m174 -63 c21 -15 26 -91
7 -125 -9 -17 -21 -22 -49 -22 -21 0 -43 5 -50 12 -16 16 -16 120 0 136 16 16
70 15 92 -1z"/>
<path d="M8553 4643 c-36 -7 -27 -30 20 -52 23 -10 76 -51 118 -89 58 -54 84
-88 113 -146 45 -89 44 -128 -2 -185 -53 -65 -73 -74 -174 -79 -51 -2 -99 -9
-105 -14 -30 -24 -8 -93 50 -162 l33 -39 50 16 c27 8 71 18 98 21 27 3 63 15
81 26 18 11 57 25 86 30 30 6 67 20 83 32 17 12 50 23 77 26 44 4 49 2 60 -22
14 -30 39 -35 39 -7 0 10 -11 38 -24 62 -13 24 -27 58 -31 76 -3 17 -13 37
-21 44 -9 7 -25 31 -36 53 -61 120 -296 340 -395 371 -13 3 -23 10 -23 15 0 8
-57 31 -69 29 -3 -1 -16 -4 -28 -6z"/>
<path d="M11781 4640 c-39 -9 -36 -27 8 -49 38 -20 39 -22 30 -53 -5 -17 -29
-51 -54 -73 -72 -66 -55 -95 54 -95 101 0 139 29 75 58 -31 15 -31 40 1 86 32
48 32 56 -7 90 -38 33 -73 45 -107 36z"/>
<path d="M11187 4599 c-36 -39 -38 -43 -26 -71 7 -17 28 -37 51 -49 32 -16 37
-23 28 -34 -7 -8 -21 -17 -31 -20 -31 -10 -21 -49 13 -53 34 -4 71 16 126 67
41 38 43 42 40 92 -3 48 -5 53 -32 60 -15 4 -35 17 -43 28 -10 15 -25 21 -51
21 -30 -1 -44 -8 -75 -41z m121 -31 c-7 -20 -48 -23 -48 -4 0 11 9 16 26 16
16 0 24 -5 22 -12z"/>
<path d="M11475 4631 c-8 -15 -9 -14 33 -35 17 -9 32 -22 32 -29 -1 -39 -21
-86 -48 -114 -35 -35 -40 -54 -17 -73 22 -18 48 -8 65 26 8 17 25 41 37 53 12
13 24 34 28 48 3 14 15 37 26 52 21 29 18 55 -9 66 -36 14 -139 18 -147 6z"/>
<path d="M10962 4614 c-28 -19 -28 -48 -1 -82 17 -23 20 -35 14 -78 -5 -40 -3
-55 10 -68 19 -19 37 -20 53 -4 15 15 16 185 2 222 -11 30 -44 34 -78 10z"/>
<path d="M4080 4510 c0 -18 4 -29 10 -25 6 3 10 15 10 25 0 10 -4 22 -10 25
-6 4 -10 -7 -10 -25z"/>
<path d="M12301 4507 c-17 -45 -13 -65 17 -81 16 -8 35 -22 42 -31 17 -21 80
-47 97 -41 20 8 16 44 -6 56 -11 5 -33 10 -49 10 -33 0 -46 12 -55 50 -3 14
-13 34 -21 45 -14 20 -15 19 -25 -8z"/>
<path d="M5594 4485 c-11 -27 4 -45 36 -45 27 0 30 2 20 20 -16 30 -49 45 -56
25z"/>
<path d="M10791 4452 c-16 -31 -14 -127 4 -142 23 -19 50 -8 53 22 4 32 -13
97 -31 123 -14 18 -15 18 -26 -3z"/>
<path d="M5677 4424 c-8 -9 3 -36 25 -60 18 -21 19 -24 4 -52 -22 -43 -21 -82
2 -82 29 0 52 33 52 73 0 20 5 48 12 63 11 23 10 28 -11 45 -22 18 -71 26 -84
13z"/>
<path d="M12026 4390 c-22 -55 -19 -110 5 -110 21 0 49 42 49 73 0 83 -28 102
-54 37z"/>
<path d="M4132 4368 c-23 -23 -14 -75 21 -113 85 -93 158 -165 167 -165 5 0
25 -14 45 -31 37 -33 115 -53 115 -30 0 23 -21 51 -38 51 -39 0 -171 96 -188
135 -7 17 -24 36 -37 42 -24 11 -37 46 -37 99 0 26 -27 33 -48 12z"/>
<path d="M10581 4358 c-5 -13 -11 -37 -15 -54 -4 -20 -16 -35 -32 -43 -14 -6
-43 -25 -65 -43 -49 -39 -51 -69 -7 -110 18 -16 37 -40 43 -51 19 -39 135 -32
135 8 0 9 -16 16 -47 20 -75 10 -93 20 -93 54 0 32 18 56 50 66 11 3 20 11 20
16 0 5 16 19 35 30 39 23 43 41 21 94 -17 40 -33 45 -45 13z"/>
<path d="M3889 4296 c-6 -13 -28 -33 -50 -45 -21 -12 -48 -35 -59 -51 -18 -26
-20 -35 -10 -69 22 -84 123 -129 181 -82 27 22 24 24 -51 38 -42 8 -46 12 -60
52 -14 41 -14 44 4 55 10 6 33 25 51 41 17 17 39 35 49 40 24 14 10 45 -20 45
-16 0 -28 -8 -35 -24z"/>
<path d="M5307 4293 c-8 -10 -19 -30 -22 -46 -4 -15 -17 -32 -29 -38 -11 -7
-32 -22 -46 -35 -62 -59 -83 -74 -125 -93 -60 -27 -61 -51 -1 -51 32 0 49 5
58 19 7 10 28 26 46 35 17 9 32 20 32 25 0 5 16 18 35 30 19 11 35 27 35 35 0
9 10 21 23 27 31 16 37 28 37 72 0 41 -16 49 -43 20z"/>
<path d="M12375 4269 c-10 -29 1 -35 25 -14 25 23 25 35 1 35 -11 0 -23 -9
-26 -21z"/>
<path d="M10857 4273 c-20 -20 -4 -60 39 -98 25 -22 56 -49 67 -61 12 -12 33
-27 47 -34 14 -7 31 -21 38 -32 13 -18 80 -26 95 -12 13 13 -14 43 -43 49 -16
4 -36 15 -42 24 -7 10 -23 23 -34 29 -20 10 -82 71 -126 122 -19 21 -30 25
-41 13z"/>
<path d="M11954 4243 c-33 -52 -141 -145 -184 -158 -33 -10 -50 -24 -50 -41 0
-20 74 -18 91 2 8 9 30 27 49 39 19 12 55 42 81 67 25 25 51 47 57 49 7 2 14
18 15 34 3 42 -35 48 -59 8z"/>
<path d="M12202 4220 c-44 -35 -52 -47 -52 -75 0 -26 -5 -35 -22 -41 -13 -4
-39 -23 -58 -43 -20 -20 -54 -52 -78 -71 -43 -35 -53 -65 -29 -89 10 -10 6
-17 -17 -38 -25 -21 -36 -24 -68 -19 -98 16 -184 17 -222 4 -82 -28 -35 -56
73 -43 44 5 66 3 89 -9 24 -12 37 -14 59 -5 15 6 49 12 75 13 60 3 75 16 62
53 -14 40 4 93 38 112 16 9 30 23 33 31 3 8 18 23 35 32 17 10 30 25 30 37 0
11 14 29 30 41 17 12 37 36 44 54 10 23 22 35 42 39 63 14 69 38 14 52 -21 5
-37 -3 -78 -35z"/>
<path d="M5553 4243 c-24 -5 -63 -47 -63 -69 0 -7 -13 -22 -30 -34 -16 -12
-32 -31 -36 -44 -3 -12 -26 -38 -51 -57 -79 -60 -92 -77 -95 -127 -3 -46 -4
-47 -52 -64 -47 -18 -49 -18 -81 2 -30 18 -39 19 -106 10 -94 -13 -109 -18
-109 -35 0 -22 43 -28 134 -21 74 6 84 5 100 -13 17 -19 21 -19 47 -6 15 8 37
15 47 15 68 0 102 40 102 122 0 35 7 46 64 102 35 35 67 72 70 84 4 11 15 22
26 25 11 3 29 21 41 42 14 24 31 38 50 42 32 6 37 18 13 27 -16 6 -34 6 -71
-1z"/>
<path d="M6455 4140 c-3 -5 -3 -36 1 -68 5 -44 2 -66 -9 -89 -21 -40 -5 -66
38 -61 28 3 30 6 30 47 0 34 4 45 20 51 23 8 65 -4 65 -20 0 -6 24 -22 53 -35
84 -41 204 -109 226 -128 42 -40 53 22 12 68 -10 11 -27 35 -37 53 -17 29 -22
32 -49 26 -45 -11 -65 -7 -89 14 -11 11 -37 28 -56 37 -41 21 -82 49 -128 88
-33 27 -66 35 -77 17z"/>
<path d="M4010 4101 c0 -6 4 -11 9 -11 5 0 12 -12 15 -26 4 -14 18 -30 34 -37
15 -7 38 -22 52 -35 71 -65 94 -82 110 -82 9 0 29 -11 44 -25 15 -14 31 -25
37 -25 10 0 24 -30 33 -71 4 -18 14 -29 32 -33 38 -10 51 7 30 38 -9 14 -16
39 -16 55 0 34 -30 61 -68 61 -13 0 -35 13 -50 29 -15 16 -37 32 -49 35 -11 4
-28 18 -37 31 -9 14 -23 25 -31 25 -7 0 -23 13 -34 29 -11 15 -33 31 -48 34
-16 3 -36 9 -45 12 -11 4 -18 3 -18 -4z"/>
<path d="M10701 4101 c-19 -12 3 -50 38 -62 16 -6 33 -21 39 -35 7 -13 24 -29
39 -35 15 -5 33 -19 40 -29 9 -12 26 -20 43 -20 21 0 39 -10 61 -35 25 -27 40
-35 66 -35 26 0 33 4 33 19 0 25 -21 41 -67 48 -22 4 -45 16 -56 30 -10 13
-25 23 -32 23 -8 0 -30 16 -49 35 -20 19 -40 35 -46 35 -6 0 -26 16 -44 35
-35 37 -43 40 -65 26z"/>
<path d="M4501 4021 c-22 -14 3 -39 45 -47 46 -9 126 4 121 19 -9 28 -134 48
-166 28z"/>
<path d="M4884 4021 c-17 -4 -37 -11 -44 -16 -24 -15 20 -35 76 -35 68 0 104
14 104 40 0 18 -6 20 -52 19 -29 -1 -67 -4 -84 -8z"/>
<path d="M11173 4014 c-4 -11 1 -22 12 -30 34 -25 165 -13 165 15 0 11 -87 31
-136 31 -23 0 -37 -6 -41 -16z"/>
<path d="M11565 4019 c-22 -5 -44 -14 -49 -19 -14 -14 37 -30 93 -30 54 0 87
19 78 44 -7 18 -56 20 -122 5z"/>
<path d="M6346 4013 c-11 -11 -6 -23 9 -23 8 0 15 4 15 9 0 13 -16 22 -24 14z"/>
<path d="M9427 3933 c-4 -3 -7 -21 -7 -40 0 -23 5 -33 15 -33 20 0 29 23 21
55 -6 25 -17 31 -29 18z"/>
<path d="M7293 3844 c-8 -21 13 -42 28 -27 13 13 5 43 -11 43 -6 0 -13 -7 -17
-16z"/>
<path d="M11061 3807 c-18 -18 -13 -47 12 -56 31 -12 53 9 38 37 -13 25 -35
34 -50 19z"/>
<path d="M4553 3802 c-12 -7 -63 -79 -63 -87 0 -3 18 -5 39 -5 32 0 44 6 65
31 29 35 31 40 14 57 -14 14 -37 15 -55 4z"/>
<path d="M11248 3791 c-74 -35 -98 -74 -55 -90 28 -11 55 3 67 33 5 13 23 29
40 35 34 11 37 35 4 38 -10 1 -36 -6 -56 -16z"/>
<path d="M9352 3788 c-19 -19 -14 -28 14 -28 18 0 25 5 22 17 -4 21 -21 26
-36 11z"/>
<path d="M6947 3784 c-9 -10 12 -34 30 -34 19 0 12 34 -8 38 -8 1 -18 0 -22
-4z"/>
<path d="M7364 3736 c-9 -24 12 -44 28 -28 10 10 8 16 -5 29 -15 15 -17 15
-23 -1z"/>
<path d="M7030 3689 c9 -15 9 -28 0 -49 -7 -16 -9 -33 -6 -39 12 -18 131 -78
171 -86 22 -3 54 -15 71 -26 42 -26 116 -35 154 -19 16 7 27 16 24 21 -8 13
-133 75 -169 83 -16 4 -64 27 -105 50 -41 24 -85 46 -97 50 -13 4 -23 14 -23
22 0 8 -7 14 -15 14 -13 0 -14 -4 -5 -21z"/>
<path d="M3100 3325 c0 -19 24 -29 46 -21 13 5 14 9 4 21 -16 20 -50 19 -50 0z"/>
<path d="M3226 3272 c-9 -15 20 -34 46 -30 35 5 29 32 -9 36 -17 2 -34 -1 -37
-6z"/>
<path d="M7057 3273 c-13 -12 -7 -21 20 -26 31 -6 73 7 73 23 0 11 -83 14 -93
3z"/>
<path d="M3375 3210 c-3 -5 0 -13 8 -16 23 -8 92 0 92 11 0 14 -92 19 -100 5z"/>
<path d="M7255 3210 c-3 -5 3 -10 14 -10 12 0 21 5 21 10 0 6 -6 10 -14 10 -8
0 -18 -4 -21 -10z"/>
<path d="M2882 3163 c-10 -4 -10 -8 -1 -19 14 -17 55 -19 65 -3 12 21 -31 36
-64 22z"/>
<path d="M3620 3159 c-24 -11 -24 -11 -5 -19 44 -18 164 -6 144 14 -11 12
-116 15 -139 5z"/>
<path d="M5733 3164 c-13 -3 -23 -9 -23 -14 0 -13 40 -20 110 -19 127 1 132
30 6 35 -39 1 -81 0 -93 -2z"/>
<path d="M6925 3159 c-19 -12 -19 -12 0 -20 44 -17 143 -4 124 16 -13 12 -105
15 -124 4z"/>
<path d="M3025 3100 c-11 -19 6 -30 46 -30 42 0 51 13 20 30 -25 13 -58 13
-66 0z"/>
<path d="M4102 3100 c-104 -24 9 -32 409 -28 322 3 415 11 349 29 -34 10 -717
9 -758 -1z"/>
<path d="M5342 3100 c-36 -15 -16 -30 41 -29 58 0 97 12 80 22 -20 13 -98 17
-121 7z"/>
<path d="M7150 3100 c-13 -9 -13 -11 0 -20 19 -13 60 -13 60 0 0 5 -9 14 -19
20 -24 12 -22 12 -41 0z"/>
<path d="M9172 3342 c-31 -5 -23 -25 16 -36 35 -10 122 0 122 14 0 15 -94 30
-138 22z"/>
<path d="M8972 3268 c3 -7 19 -14 37 -16 24 -3 32 0 29 10 -3 7 -19 14 -37 16
-24 3 -32 0 -29 -10z"/>
<path d="M12813 3273 c-23 -9 -13 -22 21 -28 36 -7 81 9 71 26 -6 9 -70 11
-92 2z"/>
<path d="M8860 3210 c0 -5 9 -10 20 -10 11 0 20 5 20 10 0 6 -9 10 -20 10 -11
0 -20 -4 -20 -10z"/>
<path d="M9285 3211 c-10 -17 14 -22 104 -22 96 1 132 8 109 22 -18 12 -205
11 -213 0z"/>
<path d="M9935 3211 c-44 -18 189 -34 243 -17 12 4 20 12 17 17 -7 11 -232 11
-260 0z"/>
<path d="M12555 3210 c-3 -5 0 -13 8 -16 23 -9 112 0 110 11 -4 14 -110 19
-118 5z"/>
<path d="M9061 3156 c-11 -13 -11 -17 2 -22 27 -10 72 0 72 16 0 21 -58 25
-74 6z"/>
<path d="M10453 3163 c-43 -6 -42 -20 2 -29 39 -7 105 2 105 15 0 19 -32 23
-107 14z"/>
<path d="M12235 3163 c-59 -6 -64 -20 -11 -28 67 -10 164 2 145 19 -8 7 -95
13 -134 9z"/>
<path d="M13174 3156 c-18 -14 -18 -15 9 -21 15 -4 39 -4 53 -1 21 6 24 9 14
21 -16 19 -51 19 -76 1z"/>
<path d="M10758 3103 c-25 -6 -22 -20 5 -27 35 -9 65 -7 73 5 13 22 -31 34
-78 22z"/>
<path d="M12953 3100 c-39 -16 -26 -30 26 -30 51 0 75 15 50 31 -18 11 -47 10
-76 -1z"/>
<path d="M2697 10619 c-21 -11 -41 -27 -44 -35 -7 -20 19 -58 96 -135 36 -37
82 -85 101 -106 167 -187 196 -207 237 -164 10 10 28 24 41 30 43 22 41 24
-236 309 -34 36 -72 78 -83 93 -24 35 -57 37 -112 8z"/>
<path d="M8109 10594 c-12 -14 -8 -20 24 -46 20 -17 37 -35 37 -41 0 -7 13
-31 29 -54 23 -34 30 -58 36 -121 8 -89 14 -105 41 -100 12 2 24 21 36 61 10
32 24 68 33 80 23 32 18 64 -16 117 -26 40 -45 55 -105 84 -82 40 -96 43 -115
20z"/>
<path d="M13507 10530 c-14 -11 -45 -29 -68 -40 -24 -12 -71 -36 -104 -55 -33
-19 -79 -43 -101 -54 -23 -12 -47 -27 -53 -35 -7 -8 -26 -18 -42 -21 -16 -4
-31 -11 -35 -16 -3 -5 -28 -21 -55 -34 -27 -14 -49 -29 -49 -33 0 -17 82 -74
114 -79 26 -4 38 0 61 21 43 40 90 36 154 -15 28 -22 51 -49 51 -58 0 -10 -14
-36 -31 -57 l-30 -39 43 -37 c71 -61 123 -44 160 54 11 29 28 62 38 73 10 11
25 42 34 69 9 27 27 62 40 77 13 15 26 43 30 62 3 18 17 43 31 55 14 12 25 30
25 41 0 18 -71 91 -89 91 -4 0 -20 11 -35 25 -33 30 -55 31 -89 5z m-3 -146
c10 -4 16 -18 16 -38 0 -24 -10 -42 -43 -74 -23 -23 -50 -42 -59 -42 -19 0
-58 58 -51 76 3 7 13 16 22 19 10 3 26 13 37 23 15 15 53 40 61 42 1 0 8 -3
17 -6z"/>
<path d="M8810 10515 c0 -8 4 -15 9 -15 5 0 28 -39 52 -87 38 -75 44 -99 47
-163 6 -118 32 -131 87 -45 19 31 35 65 35 77 0 35 -51 131 -89 168 -32 31
-113 80 -133 80 -5 0 -8 -7 -8 -15z"/>
<path d="M2462 10468 c-23 -18 -75 -58 -117 -88 -42 -30 -103 -75 -136 -98
l-59 -44 31 -39 c36 -46 62 -49 99 -14 15 14 43 28 63 32 38 6 28 14 196 -147
152 -146 173 -158 208 -121 10 10 28 24 41 30 33 18 27 39 -25 89 -238 223
-261 250 -247 286 3 8 19 20 35 26 59 25 56 80 -6 105 -44 19 -36 20 -83 -17z"/>
<path d="M13825 10152 c-11 -4 -49 -27 -83 -51 -72 -51 -132 -144 -132 -205 0
-70 101 -210 180 -251 16 -8 46 -27 67 -41 59 -40 94 -31 196 56 83 71 112
108 101 132 -5 12 -57 54 -108 87 -29 19 -92 7 -106 -20 -8 -15 -7 -26 7 -49
17 -29 16 -30 -7 -55 -28 -30 -39 -31 -91 -5 -49 25 -62 56 -57 134 4 51 9 62
34 83 16 13 39 33 51 45 18 18 37 23 93 26 66 4 72 3 124 -32 30 -20 76 -57
101 -83 40 -39 50 -45 64 -35 9 7 28 20 43 30 15 9 30 23 32 29 9 22 -106 121
-199 173 -57 32 -65 34 -175 36 -63 2 -124 0 -135 -4z"/>
<path d="M1985 10112 c-69 -39 -116 -87 -146 -151 l-29 -64 29 -63 c27 -58 33
-64 72 -74 64 -18 184 -4 236 26 47 27 104 31 123 9 8 -9 10 -28 6 -48 -5 -26
-17 -41 -54 -65 -26 -16 -59 -36 -74 -43 -30 -13 -34 -28 -17 -62 24 -45 68
-50 119 -12 19 14 39 25 44 25 28 1 98 82 122 140 l25 62 -30 63 c-29 63 -30
63 -83 74 -71 15 -195 0 -241 -28 -42 -26 -93 -28 -106 -3 -19 35 -1 71 54
108 82 54 85 61 45 95 -40 33 -53 34 -95 11z"/>
<path d="M14418 9780 c-18 -16 -35 -30 -39 -30 -3 0 -19 -11 -35 -25 -16 -14
-33 -25 -38 -25 -4 0 -23 -12 -41 -27 -40 -34 -98 -78 -182 -138 -43 -31 -63
-52 -63 -66 0 -19 38 -60 189 -200 52 -49 95 -59 127 -28 13 12 24 29 24 37 0
7 -31 45 -70 83 -38 38 -70 76 -70 84 0 15 68 55 94 55 8 0 42 -27 75 -60 34
-33 65 -60 71 -60 5 0 25 8 45 17 46 22 55 51 24 76 -56 45 -109 97 -109 107
0 20 49 60 73 60 16 0 47 -20 88 -60 49 -46 71 -60 94 -60 34 0 77 19 82 37 3
7 -37 52 -88 100 -51 49 -107 103 -125 121 -43 42 -81 43 -126 2z"/>
<path d="M1576 9759 c-44 -35 -28 -93 34 -119 16 -7 30 -17 30 -22 0 -5 20
-17 44 -27 24 -11 46 -26 49 -35 4 -9 18 -21 32 -28 14 -6 25 -17 25 -25 0
-19 -56 -16 -115 6 -27 10 -84 21 -126 25 -42 4 -91 11 -109 16 -41 12 -102
-18 -148 -71 l-32 -36 33 -29 c29 -27 49 -41 157 -114 57 -38 110 -77 160
-115 55 -41 128 -85 144 -85 6 0 26 16 45 34 l33 34 -27 36 c-15 20 -37 42
-49 49 -68 38 -92 54 -113 75 -13 12 -40 29 -59 37 -99 41 31 66 134 26 50
-20 185 -41 264 -41 31 0 46 8 83 44 25 25 45 48 45 53 -1 4 -22 23 -48 40
-26 18 -76 53 -112 78 -36 25 -87 61 -115 80 -27 19 -68 48 -90 64 -51 38
-110 71 -128 71 -8 0 -26 -9 -41 -21z"/>
<path d="M14817 9396 c-20 -14 -55 -34 -79 -45 -24 -11 -50 -25 -58 -30 -8 -5
-31 -17 -50 -27 -19 -9 -62 -32 -95 -50 -33 -18 -76 -40 -95 -48 -57 -26 -65
-32 -68 -55 -4 -26 11 -47 50 -67 32 -16 45 -12 173 61 89 50 122 65 145 65
25 0 26 -25 3 -45 -100 -88 -193 -188 -193 -208 0 -31 11 -44 44 -57 34 -12
183 16 257 49 24 11 65 21 92 21 39 0 47 -3 47 -19 0 -13 -14 -24 -45 -35 -25
-10 -45 -22 -45 -27 0 -5 -17 -18 -37 -29 -99 -55 -136 -78 -143 -90 -12 -20
-1 -45 36 -81 l34 -33 42 24 c24 12 51 30 61 39 10 8 34 24 52 36 19 11 64 41
102 66 37 25 90 59 116 75 26 16 66 46 89 66 l41 37 -32 38 c-80 93 -119 112
-169 83 -19 -12 -60 -26 -91 -31 -31 -6 -71 -19 -89 -30 -34 -19 -106 -26
-116 -10 -6 9 118 131 193 191 47 38 52 63 16 86 -13 9 -34 31 -45 49 -18 30
-62 55 -95 55 -7 0 -28 -11 -48 -24z m-17 -176 c0 -5 -7 -10 -16 -10 -8 0 -12
5 -9 10 3 6 10 10 16 10 5 0 9 -4 9 -10z"/>
<path d="M1108 9278 c-53 -57 -53 -61 12 -106 32 -23 63 -42 68 -42 5 0 17 -9
26 -19 10 -11 32 -25 49 -32 18 -7 45 -23 60 -36 16 -13 34 -23 41 -23 7 0 30
-13 51 -30 21 -16 43 -30 50 -30 6 0 22 -11 35 -25 35 -37 83 -34 126 9 22 22
32 40 28 50 -7 19 -90 81 -120 90 -12 4 -29 15 -39 26 -10 11 -24 20 -31 20
-7 0 -26 11 -42 25 -17 14 -43 31 -59 38 -15 6 -40 20 -53 30 -66 47 -108 71
-139 78 -30 7 -38 4 -63 -23z"/>
<path d="M805 8915 c-25 -25 -45 -50 -45 -55 0 -5 -17 -29 -37 -54 -113 -135
-119 -162 -38 -182 17 -3 44 -17 60 -29 17 -12 45 -27 64 -33 19 -7 42 -18 50
-25 9 -8 32 -20 51 -27 19 -7 42 -19 51 -27 8 -7 31 -18 50 -24 19 -7 49 -23
68 -37 58 -43 123 -27 157 41 9 17 23 36 30 40 8 4 23 25 33 45 11 20 31 48
45 61 28 26 35 78 14 99 -7 7 -31 12 -55 12 -39 0 -44 -3 -63 -37 -11 -21 -35
-55 -53 -75 -27 -30 -41 -38 -69 -38 -62 0 -90 60 -48 104 11 12 34 37 50 58
l30 36 -39 31 c-21 17 -43 31 -49 31 -5 0 -30 -24 -56 -52 -25 -29 -55 -64
-67 -77 -16 -18 -27 -22 -51 -17 -17 3 -37 11 -45 17 -20 17 -16 57 8 77 11 9
34 36 50 60 28 42 28 44 12 70 -18 29 -42 52 -55 52 -4 0 -28 -20 -53 -45z"/>
<path d="M15340 8798 c-19 -5 -47 -19 -62 -30 -16 -11 -45 -24 -66 -30 -20 -5
-46 -18 -57 -28 -11 -10 -38 -23 -60 -30 -22 -7 -49 -20 -60 -30 -11 -10 -37
-23 -57 -29 -20 -7 -57 -28 -82 -47 l-46 -35 22 -30 c13 -16 40 -50 61 -75 20
-25 37 -51 37 -58 0 -7 12 -23 26 -37 14 -13 32 -36 40 -51 16 -32 36 -35 88
-13 52 22 55 40 12 84 -20 20 -36 42 -36 48 0 6 -12 26 -27 43 l-27 32 25 19
c58 44 66 45 107 12 20 -16 46 -47 57 -67 11 -21 28 -42 37 -47 23 -13 94 6
102 26 7 20 -10 63 -34 84 -11 9 -26 33 -35 53 -14 36 -14 39 6 59 35 35 109
4 135 -56 7 -19 24 -41 36 -49 40 -28 118 -15 118 20 0 23 -36 86 -65 113 -14
13 -25 29 -25 37 0 7 -12 27 -27 43 -16 16 -36 41 -46 55 -19 28 -39 31 -97
14z"/>
<path d="M507 8508 c-9 -5 -24 -26 -33 -46 -14 -34 -14 -38 3 -50 52 -37 94
-61 126 -71 42 -14 48 -26 32 -66 -7 -16 -18 -43 -24 -58 -23 -59 -122 -70
-181 -21 -15 13 -40 24 -54 24 -35 0 -96 -49 -96 -76 0 -29 60 -73 122 -89 27
-8 57 -20 67 -28 9 -8 41 -22 72 -31 31 -9 62 -22 69 -31 6 -8 28 -17 49 -21
20 -3 52 -16 71 -29 43 -28 82 -37 115 -29 27 7 55 49 55 83 0 23 -68 66 -140
87 -38 11 -51 20 -56 38 -6 24 10 66 25 66 4 0 16 18 26 40 20 45 28 47 116
30 33 -6 63 -20 79 -35 14 -14 34 -25 44 -25 28 0 96 62 96 88 0 28 -72 77
-129 86 -21 3 -44 13 -51 21 -7 8 -35 22 -62 30 -27 8 -61 23 -76 34 -15 10
-46 23 -67 27 -22 4 -56 17 -75 29 -41 26 -99 37 -123 23z"/>
<path d="M15645 8384 c-16 -9 -41 -23 -55 -30 -14 -8 -32 -14 -41 -14 -9 0
-36 -11 -61 -24 -25 -13 -60 -27 -79 -31 -19 -4 -54 -18 -79 -31 -25 -13 -63
-28 -86 -34 -39 -9 -113 -57 -114 -73 0 -4 12 -25 26 -47 31 -47 60 -52 99
-16 14 13 44 27 67 30 24 4 52 16 63 26 12 11 43 24 70 29 88 16 98 -7 33 -73
-184 -185 -204 -216 -174 -274 32 -61 95 -69 183 -22 31 17 65 30 76 30 11 0
39 11 61 24 23 13 57 27 76 31 19 4 53 17 75 30 22 13 58 26 78 30 66 13 87
58 48 106 -18 22 -20 22 -89 10 -39 -7 -82 -21 -94 -30 -28 -21 -178 -75 -186
-66 -3 3 4 12 15 20 11 8 23 25 27 38 3 13 14 28 25 33 20 10 181 189 181 202
0 16 -80 130 -95 136 -21 8 -15 9 -50 -10z"/>
<path d="M190 7960 c-22 -24 -43 -60 -50 -88 -8 -26 -24 -60 -37 -75 -13 -16
-26 -41 -29 -55 -10 -51 -23 -71 -49 -78 -39 -10 -35 -50 7 -58 97 -20 90 -21
136 33 46 54 63 60 108 36 16 -8 38 -15 49 -15 11 0 44 -11 74 -25 29 -14 72
-28 95 -31 22 -4 60 -17 83 -30 60 -35 95 -32 127 10 14 19 26 41 26 49 0 26
-68 68 -133 81 -34 7 -78 23 -97 34 -19 11 -55 23 -80 26 -58 9 -140 59 -140
87 0 11 7 33 16 50 19 37 12 62 -22 77 -37 18 -44 16 -84 -28z"/>
<path d="M15921 7826 c-19 -20 -21 -28 -12 -44 6 -12 11 -33 11 -47 0 -49 -15
-62 -86 -74 -37 -7 -84 -21 -105 -31 -20 -11 -57 -22 -81 -26 -46 -7 -160 -57
-178 -79 -8 -10 -4 -21 17 -46 15 -19 32 -38 38 -42 16 -13 95 1 130 23 18 11
54 23 81 26 27 4 71 18 97 31 27 13 71 27 97 30 60 7 91 -10 120 -67 26 -52
65 -55 104 -9 l26 30 -21 28 c-11 15 -25 47 -30 70 -5 24 -21 58 -34 75 -14
18 -25 40 -25 49 0 9 -7 34 -16 56 -28 70 -91 92 -133 47z"/>
<path d="M14003 2720 c-28 -11 -184 -130 -201 -152 -7 -10 -18 -18 -24 -18
-22 0 -218 -170 -218 -189 0 -5 35 -39 78 -77 42 -37 89 -79 104 -93 15 -15
43 -39 62 -55 18 -16 49 -43 68 -60 19 -17 63 -56 98 -86 35 -30 79 -69 98
-86 19 -17 49 -43 66 -57 17 -15 46 -40 65 -57 19 -16 43 -30 54 -30 10 0 86
53 168 117 82 65 186 147 232 182 45 35 83 66 85 70 2 6 -50 61 -113 119 -49
44 -89 43 -147 -3 -23 -18 -54 -43 -68 -54 -14 -11 -42 -34 -63 -52 -33 -28
-42 -31 -65 -23 -20 7 -28 17 -30 41 -3 27 3 36 55 74 78 60 123 104 123 122
0 20 -134 135 -166 143 -19 5 -34 -2 -67 -31 -23 -20 -53 -45 -67 -56 -14 -11
-39 -31 -56 -44 -36 -28 -62 -32 -70 -10 -9 22 10 69 32 80 10 6 31 21 45 35
15 14 50 43 78 64 28 22 51 42 51 46 0 4 -26 28 -57 54 -32 26 -70 58 -86 71
-30 27 -32 28 -64 15z m66 -104 c15 -16 21 -31 17 -44 -6 -19 -96 -100 -160
-145 -14 -10 -29 -29 -32 -43 -5 -20 2 -31 37 -64 24 -21 59 -44 77 -51 31
-10 36 -9 66 20 18 17 35 31 39 31 5 0 35 22 67 50 l60 49 44 -22 c25 -12 47
-28 50 -34 6 -14 -60 -80 -100 -101 -13 -7 -24 -17 -24 -22 0 -6 -16 -18 -35
-27 -28 -13 -35 -23 -35 -45 0 -15 8 -35 19 -44 10 -9 35 -32 55 -50 48 -45
94 -46 145 -4 20 16 49 40 65 52 16 13 42 36 59 51 25 24 37 28 76 25 44 -3
46 -4 56 -42 8 -34 7 -41 -10 -50 -10 -6 -29 -21 -42 -33 -13 -13 -37 -30 -53
-38 -17 -9 -30 -20 -30 -26 0 -5 -8 -12 -17 -16 -17 -6 -72 -50 -118 -93 -11
-10 -39 -26 -62 -35 l-42 -17 -34 29 c-63 52 -462 396 -482 415 -11 10 -31 26
-44 36 -20 16 -22 22 -12 40 11 21 97 96 185 162 26 19 57 45 69 56 29 28 77
53 103 54 11 0 31 -11 43 -24z"/>
<path d="M1928 2627 c-14 -12 -43 -33 -63 -47 -20 -14 -52 -37 -70 -52 -18
-16 -37 -28 -42 -28 -6 0 -24 -12 -41 -27 -58 -52 -100 -83 -109 -83 -6 0 -17
-8 -26 -18 -10 -10 -51 -36 -92 -57 l-75 -38 -32 29 c-17 16 -45 44 -63 62
-17 17 -39 32 -48 32 -24 0 -69 -21 -97 -46 -14 -12 -38 -26 -55 -31 -32 -10
-42 -35 -30 -80 6 -26 116 -143 133 -143 6 0 25 -12 42 -26 25 -22 46 -28 116
-35 97 -10 207 2 233 25 10 9 33 21 52 27 19 7 45 22 59 33 14 12 36 30 50 39
27 19 76 53 126 89 17 13 58 42 90 65 33 23 77 56 99 73 22 16 55 37 73 45 18
9 32 23 32 33 0 10 -37 54 -83 100 -72 72 -87 82 -117 82 -21 -1 -46 -10 -62
-23z m108 -75 c17 -10 46 -84 37 -93 -16 -16 -79 -59 -115 -79 -21 -11 -38
-25 -38 -30 0 -5 -16 -16 -35 -24 -19 -8 -35 -20 -35 -25 0 -6 -15 -18 -32
-27 -18 -9 -39 -25 -46 -35 -7 -11 -17 -19 -23 -19 -10 0 -93 -53 -141 -90
-36 -27 -142 -44 -224 -35 -59 6 -70 11 -139 68 -79 64 -88 83 -59 125 20 29
98 32 113 5 5 -10 34 -31 64 -47 l55 -29 43 20 c24 12 59 26 78 32 19 6 40 20
48 31 8 11 19 20 25 20 6 0 25 12 43 28 18 15 48 37 67 50 18 12 76 54 128 92
80 60 101 70 135 70 22 0 45 -4 51 -8z"/>
<path d="M2258 2353 c-14 -16 -74 -73 -134 -128 -59 -55 -138 -129 -174 -165
-37 -36 -97 -92 -135 -125 -37 -33 -85 -77 -106 -97 -21 -21 -43 -38 -49 -38
-5 0 -10 -17 -10 -39 0 -33 4 -40 30 -51 16 -7 35 -19 41 -27 22 -26 116 -83
137 -83 12 0 38 17 60 38 40 39 134 125 247 227 37 33 98 89 135 125 36 36
101 96 143 135 90 81 99 110 45 143 -18 11 -62 41 -98 66 -36 25 -74 46 -85
46 -11 0 -32 -12 -47 -27z m119 -88 c28 -12 33 -19 33 -49 0 -20 -7 -41 -16
-48 -9 -7 -35 -31 -58 -53 -68 -66 -247 -232 -315 -293 -35 -31 -78 -72 -96
-90 -23 -23 -45 -35 -73 -39 -36 -5 -45 -2 -72 25 -52 53 -55 49 179 260 110
98 147 133 180 167 9 10 48 46 86 81 75 69 78 70 152 39z"/>
<path d="M13346 2245 c-20 -14 -48 -28 -61 -31 -14 -3 -31 -14 -38 -23 -6 -9
-24 -24 -39 -34 -36 -23 -35 -36 5 -79 17 -20 48 -54 67 -77 33 -39 47 -54 88
-93 9 -9 33 -36 52 -59 19 -23 49 -55 66 -73 17 -17 34 -39 37 -49 4 -9 18
-22 32 -29 14 -6 25 -15 25 -20 0 -5 17 -27 38 -48 51 -54 114 -124 130 -144
22 -28 86 -21 122 14 17 17 37 30 44 30 20 0 106 71 106 87 0 8 -18 33 -40 55
-22 22 -42 49 -45 59 -4 11 -17 25 -29 32 -13 6 -60 55 -105 107 -45 52 -86
100 -92 105 -5 6 -18 17 -27 26 -9 9 -46 49 -82 90 -169 192 -184 201 -254
154z m92 -77 c9 -12 32 -36 50 -53 17 -17 32 -35 32 -39 0 -4 32 -40 70 -79
39 -40 84 -88 100 -107 17 -19 61 -68 98 -107 145 -156 155 -175 109 -192 -13
-5 -29 -16 -36 -25 -7 -9 -26 -16 -42 -16 -25 0 -44 14 -104 78 -5 6 -18 19
-28 29 -62 61 -158 171 -163 186 -3 9 -19 24 -35 32 -16 9 -29 19 -29 24 0 5
-29 40 -65 77 -60 63 -105 128 -105 153 0 10 97 61 117 61 7 0 21 -10 31 -22z"/>
<path d="M2613 2083 c-10 -16 -31 -42 -48 -60 -16 -18 -43 -49 -60 -69 -16
-21 -44 -51 -61 -69 -17 -17 -37 -42 -44 -55 -7 -14 -23 -36 -36 -50 -13 -14
-42 -44 -64 -67 -22 -23 -40 -47 -40 -52 0 -10 -30 -46 -95 -113 -29 -30 -75
-95 -75 -106 0 -12 69 -62 113 -83 23 -11 54 -29 68 -40 24 -19 31 -20 63 -9
20 6 44 23 54 37 9 15 31 40 48 57 17 17 35 41 38 54 7 21 71 62 97 62 6 0 24
-11 41 -25 16 -14 35 -25 42 -25 7 0 21 -9 31 -20 9 -10 37 -27 60 -36 39 -14
45 -14 73 0 17 9 39 28 49 43 10 14 33 40 51 58 38 37 41 60 10 76 -13 6 -32
19 -43 29 -11 10 -31 21 -45 25 -35 11 -122 75 -117 88 2 6 14 19 28 29 23 18
27 18 64 2 22 -9 53 -27 68 -40 16 -13 36 -24 46 -24 10 0 26 -9 36 -20 26
-29 81 -37 105 -15 11 10 20 24 20 31 0 7 12 22 28 34 34 27 51 57 52 91 0 29
-12 43 -50 54 -14 4 -34 15 -45 25 -20 18 -56 38 -145 81 -25 12 -47 26 -49
31 -1 5 -26 20 -55 34 -28 14 -67 34 -86 44 -19 11 -52 20 -72 20 -30 0 -41
-6 -55 -27z m132 -65 c29 -22 83 -54 151 -86 23 -11 45 -26 49 -32 4 -6 28
-21 54 -31 78 -34 111 -102 54 -115 -16 -3 -34 -7 -41 -10 -17 -5 -92 25 -117
47 -11 9 -36 24 -55 33 -19 9 -42 21 -51 27 -22 17 -62 4 -90 -27 -13 -15 -39
-41 -56 -59 -18 -17 -33 -36 -33 -42 0 -14 70 -69 100 -78 14 -4 34 -15 45
-25 11 -10 35 -25 53 -34 38 -19 39 -24 11 -70 -16 -28 -28 -36 -49 -36 -15 0
-33 6 -39 14 -7 8 -33 24 -59 36 -26 12 -52 28 -59 37 -6 8 -30 19 -54 24 -33
8 -47 6 -65 -6 -13 -8 -24 -22 -24 -30 0 -7 -11 -22 -24 -32 -13 -11 -32 -33
-43 -49 -23 -38 -86 -94 -106 -94 -8 0 -20 6 -26 14 -6 8 -25 20 -42 27 -28
11 -31 15 -25 48 3 23 16 43 36 59 16 13 30 30 30 38 0 7 9 19 21 26 11 7 29
28 40 46 20 31 35 49 115 134 19 20 34 41 34 46 0 5 29 40 65 77 36 37 65 73
65 79 0 18 33 46 66 56 41 12 39 12 69 -12z"/>
<path d="M12966 2011 c-9 -10 -31 -21 -47 -25 -17 -3 -42 -15 -56 -26 -14 -11
-44 -25 -66 -31 -22 -6 -54 -24 -70 -40 -35 -36 -34 -74 6 -131 16 -25 26 -57
31 -103 12 -115 -8 -114 -138 9 -75 71 -108 95 -134 100 -35 5 -93 -13 -122
-39 -8 -7 -32 -16 -52 -20 -20 -4 -44 -16 -54 -26 -9 -11 -36 -24 -58 -30 -64
-17 -70 -36 -26 -75 17 -15 32 -42 36 -61 4 -20 17 -41 33 -52 17 -12 31 -36
39 -65 6 -25 20 -50 31 -55 11 -6 25 -28 31 -48 7 -21 25 -51 40 -68 15 -16
31 -43 34 -59 4 -17 21 -45 37 -63 16 -19 29 -42 29 -53 0 -11 16 -35 35 -54
19 -20 35 -44 35 -55 0 -10 8 -29 19 -42 l18 -23 77 18 c49 12 89 29 113 47
19 16 39 29 43 29 30 0 8 90 -27 109 -11 5 -25 27 -31 49 -16 52 -16 52 14 52
25 0 37 -10 120 -92 29 -28 36 -30 78 -25 62 9 172 62 188 92 11 18 -5 51 -31
64 -24 13 -40 153 -21 176 21 25 39 17 56 -25 9 -22 25 -45 35 -51 10 -5 28
-27 38 -48 34 -66 99 -91 135 -52 10 11 32 23 50 26 37 8 126 65 126 82 0 16
-59 103 -71 103 -5 0 -18 18 -29 40 -11 21 -29 44 -41 50 -11 7 -25 25 -31 41
-5 16 -19 34 -29 40 -10 5 -28 28 -39 50 -12 22 -28 43 -36 46 -8 3 -24 23
-34 44 -11 21 -26 42 -34 46 -7 4 -21 24 -31 43 -10 19 -30 47 -44 61 -14 15
-46 52 -71 83 -48 60 -75 69 -104 37z m55 -81 c10 -6 19 -17 19 -25 0 -7 11
-22 24 -32 13 -10 31 -34 41 -53 10 -19 29 -46 42 -60 66 -70 87 -97 99 -127
8 -18 23 -37 34 -43 11 -6 29 -29 40 -50 11 -22 25 -40 30 -40 5 0 17 -15 26
-32 9 -18 30 -45 46 -61 23 -21 29 -34 26 -59 -3 -27 -9 -34 -50 -51 l-47 -19
-45 37 c-24 20 -49 49 -54 65 -6 16 -22 36 -36 45 -14 9 -28 25 -31 36 -4 10
-21 36 -38 58 -18 21 -41 53 -52 72 -51 84 -64 101 -91 130 -40 43 -62 53 -80
38 -20 -17 -17 -45 11 -93 13 -23 31 -74 40 -114 17 -84 30 -112 49 -112 11 0
15 -22 18 -89 3 -78 6 -93 27 -115 l23 -25 -19 -33 c-18 -31 -23 -33 -78 -36
-53 -3 -62 0 -80 21 -11 13 -60 59 -110 102 -49 43 -133 122 -186 176 -93 96
-116 110 -149 90 -12 -8 -10 -17 10 -61 13 -28 30 -56 38 -62 7 -6 23 -30 34
-52 11 -23 30 -52 43 -66 12 -14 28 -42 35 -63 6 -21 23 -45 36 -53 14 -9 26
-30 30 -50 3 -19 17 -43 30 -53 17 -14 24 -29 24 -55 0 -33 -3 -36 -40 -46
-23 -6 -49 -9 -58 -6 -30 10 -80 64 -87 94 -3 16 -17 40 -30 52 -14 13 -30 39
-36 59 -7 20 -24 50 -39 68 -16 17 -31 45 -35 61 -3 17 -15 38 -27 48 -11 11
-29 39 -40 64 -11 25 -28 53 -38 62 -23 22 -51 109 -43 137 4 14 21 25 57 35
29 9 61 25 71 36 23 25 61 26 98 2 35 -24 234 -204 334 -304 28 -29 34 -31 57
-20 31 14 31 17 9 105 -11 50 -23 73 -40 84 -19 13 -23 24 -23 67 0 66 -15
118 -40 141 -13 12 -20 31 -20 57 0 35 3 40 36 54 20 9 49 24 63 35 14 10 46
23 71 28 25 5 46 9 48 10 2 1 12 -4 23 -9z"/>
<path d="M3294 1734 c-10 -16 -28 -39 -41 -51 -12 -12 -25 -34 -29 -50 -4 -15
-19 -41 -34 -58 -15 -16 -33 -46 -39 -66 -6 -20 -22 -46 -36 -59 -13 -12 -27
-35 -30 -50 -3 -16 -19 -42 -34 -58 -23 -23 -30 -43 -36 -93 -4 -35 -13 -74
-21 -86 -18 -28 -18 -54 1 -90 8 -15 17 -44 20 -64 7 -49 125 -147 194 -162
25 -5 56 -19 69 -31 21 -19 35 -21 145 -21 117 0 124 1 161 27 21 16 45 28 53
28 19 0 143 119 143 137 0 8 13 26 29 41 15 15 33 42 40 61 6 18 22 44 36 56
13 13 27 36 31 52 4 15 17 39 30 53 13 14 30 43 40 65 9 22 27 50 41 63 18 16
23 31 21 55 -3 27 -9 34 -42 45 -21 6 -49 21 -63 32 -14 11 -33 20 -42 20 -9
0 -34 10 -56 21 l-40 22 -20 -29 c-11 -15 -32 -39 -46 -54 -14 -14 -31 -39
-37 -56 -5 -17 -21 -42 -35 -56 -14 -14 -29 -41 -32 -61 -4 -21 -17 -42 -35
-55 -17 -13 -30 -34 -34 -56 -4 -19 -18 -44 -31 -54 -13 -11 -30 -31 -36 -45
-7 -15 -20 -29 -29 -32 -10 -3 -25 -14 -35 -25 -27 -30 -80 -26 -110 6 -20 22
-25 38 -25 80 0 46 4 58 30 84 16 17 33 43 36 58 4 15 19 41 34 57 15 17 33
47 40 68 6 20 20 42 30 47 11 6 25 29 31 53 7 23 25 54 41 69 16 15 28 37 28
52 0 33 -49 72 -102 81 -24 4 -52 16 -64 26 -12 11 -37 22 -57 26 -31 5 -37 2
-53 -23z m135 -80 c28 -15 51 -33 51 -41 0 -9 -11 -28 -25 -45 -14 -16 -25
-38 -25 -48 0 -10 -15 -37 -34 -59 -19 -23 -37 -54 -41 -70 -3 -16 -13 -32
-21 -35 -8 -3 -26 -29 -39 -58 -14 -29 -34 -65 -45 -79 -25 -30 -37 -121 -21
-162 6 -15 23 -32 37 -37 14 -6 38 -19 52 -30 38 -31 110 -27 155 8 20 15 48
35 63 46 14 10 32 33 39 50 7 17 23 40 34 50 12 11 26 37 33 59 6 21 18 42 26
45 8 3 25 28 37 56 12 28 32 59 43 70 12 10 24 31 27 46 9 42 27 51 92 48 55
-3 59 -5 77 -39 l19 -35 -26 -27 c-15 -14 -27 -35 -27 -47 0 -11 -16 -36 -35
-56 -21 -20 -35 -45 -35 -59 0 -14 -14 -39 -35 -59 -20 -20 -35 -45 -35 -58 0
-13 -13 -36 -30 -53 -89 -91 -126 -125 -137 -125 -6 0 -26 -12 -44 -27 -30
-26 -38 -27 -134 -27 -98 0 -104 1 -176 38 -116 59 -140 80 -181 159 -21 40
-38 78 -38 86 0 7 11 26 24 42 13 16 29 52 36 81 7 37 20 61 40 80 17 15 30
36 30 46 0 11 16 39 35 62 19 23 35 50 35 61 0 10 14 32 30 49 17 18 33 45 37
61 7 37 22 49 75 58 3 0 29 -11 57 -25z"/>
<path d="M11882 1536 c-34 -7 -76 -22 -91 -34 -16 -12 -41 -24 -55 -28 -40
-10 -49 -27 -27 -55 10 -13 22 -40 26 -59 4 -19 20 -49 35 -66 15 -18 30 -49
34 -73 4 -26 16 -51 31 -65 16 -15 28 -41 34 -71 6 -34 18 -57 40 -77 30 -28
31 -33 25 -76 -3 -26 -11 -52 -18 -58 -38 -38 -138 -34 -166 6 -8 12 -27 35
-42 51 -16 16 -28 37 -28 47 -1 32 -28 94 -48 108 -12 8 -22 31 -27 60 -4 31
-16 56 -36 76 -16 17 -29 39 -29 50 0 38 -29 88 -57 99 -56 21 -270 -44 -287
-88 -4 -9 5 -25 23 -42 18 -17 31 -42 35 -68 4 -23 18 -50 31 -63 15 -14 28
-43 36 -78 7 -35 20 -63 36 -78 14 -13 29 -42 34 -65 6 -23 23 -57 39 -76 17
-19 30 -39 30 -46 0 -12 43 -53 118 -114 21 -16 54 -30 85 -35 55 -8 107 -3
107 13 0 14 -41 36 -94 48 -27 7 -61 24 -77 39 -15 15 -35 34 -44 42 -47 46
-83 100 -89 134 -4 21 -18 48 -31 60 -14 13 -29 43 -35 72 -6 27 -22 61 -36
75 -23 24 -53 114 -54 161 0 22 23 34 82 43 46 7 48 6 65 -26 10 -18 28 -42
40 -54 13 -12 24 -40 29 -70 5 -36 15 -57 35 -76 19 -17 31 -41 35 -69 4 -25
19 -56 34 -74 15 -17 30 -41 34 -53 4 -12 26 -38 48 -58 40 -34 44 -35 125
-35 l84 0 45 45 c39 40 44 50 44 89 0 32 -7 53 -23 73 -13 15 -29 50 -36 77
-7 28 -25 65 -42 83 -16 19 -29 45 -29 59 0 29 -13 58 -46 97 -18 21 -24 41
-24 75 0 63 9 73 64 79 44 5 50 3 86 -32 30 -29 42 -51 50 -90 7 -32 20 -61
35 -75 15 -14 27 -39 31 -69 5 -32 16 -54 36 -72 25 -24 29 -37 37 -111 4 -47
5 -111 0 -142 -7 -51 -13 -64 -49 -97 -23 -22 -45 -39 -50 -39 -5 0 -21 -11
-37 -24 -17 -14 -52 -27 -92 -34 -63 -11 -111 -34 -111 -52 0 -16 161 -12 190
5 14 8 46 25 71 37 55 27 136 114 150 160 23 82 4 264 -33 297 -10 10 -25 42
-33 72 -8 29 -25 63 -38 75 -16 14 -27 39 -31 69 -5 29 -18 58 -35 78 -16 18
-32 47 -36 65 -8 38 -29 62 -53 61 -9 -1 -45 -7 -80 -13z"/>
<path d="M4201 1396 c-6 -7 -15 -34 -20 -59 -5 -28 -17 -54 -30 -65 -15 -11
-28 -40 -37 -82 -9 -35 -26 -76 -39 -91 -14 -17 -26 -48 -30 -78 -4 -33 -17
-63 -35 -86 -15 -19 -31 -54 -34 -77 -4 -24 -20 -62 -36 -86 -33 -49 -49 -137
-31 -170 8 -15 28 -24 68 -31 32 -6 83 -15 113 -21 52 -10 56 -9 76 14 12 13
25 45 28 70 4 25 18 58 31 74 13 15 26 46 30 67 11 63 15 75 30 75 19 0 30
-24 45 -95 7 -33 24 -82 38 -108 20 -39 24 -57 19 -96 -8 -68 8 -94 62 -103
24 -4 54 -17 66 -28 14 -13 41 -22 81 -26 58 -6 62 -5 97 25 28 26 38 44 47
89 7 31 20 66 30 77 23 25 35 57 44 117 5 31 14 51 25 58 22 11 29 28 42 94 5
28 19 60 30 72 12 13 28 51 36 85 8 35 25 76 39 92 34 41 32 72 -7 86 -18 6
-40 11 -51 11 -10 0 -31 9 -46 20 -15 11 -50 23 -78 26 -46 6 -53 4 -68 -17
-9 -13 -16 -31 -16 -40 0 -9 -9 -23 -21 -30 -30 -21 -50 -125 -30 -158 13 -20
47 -5 59 27 6 15 14 46 17 69 7 45 32 69 84 79 24 5 35 0 60 -27 33 -37 39
-57 17 -65 -17 -6 -32 -43 -41 -99 -4 -22 -18 -52 -31 -66 -18 -19 -28 -44
-33 -84 -6 -42 -15 -63 -34 -81 -15 -14 -27 -26 -27 -28 0 -36 -26 -115 -45
-138 -14 -16 -28 -47 -31 -69 -8 -47 -26 -59 -88 -59 -38 0 -52 6 -84 35 -24
21 -44 51 -51 76 -7 24 -19 52 -26 63 -9 14 -15 83 -20 216 -7 210 -15 253
-48 248 -36 -5 -85 -81 -93 -144 -5 -42 -13 -63 -35 -85 -20 -21 -30 -43 -35
-80 -4 -30 -16 -62 -29 -77 -12 -15 -30 -42 -39 -59 -14 -29 -22 -33 -55 -33
-22 0 -48 8 -61 18 -20 16 -21 22 -12 70 6 35 17 58 30 68 22 15 42 70 42 117
0 19 10 38 28 55 22 21 30 40 36 81 5 39 15 64 36 87 19 22 30 48 35 82 5 40
14 57 45 87 l39 38 58 -12 c111 -23 105 -19 130 -100 12 -40 30 -82 40 -93 15
-17 18 -47 23 -221 5 -201 5 -202 28 -205 29 -4 52 14 52 42 0 11 14 50 30 84
22 46 30 79 30 117 0 51 -1 54 -27 57 -23 2 -34 15 -62 68 -27 52 -35 80 -39
140 -2 41 -9 83 -13 92 -17 33 -93 68 -160 74 -38 4 -75 14 -91 25 -32 22 -61
24 -77 5z"/>
<path d="M10607 1180 c-16 -5 -35 -15 -44 -22 -9 -7 -53 -15 -99 -19 -68 -4
-89 -10 -121 -32 -22 -15 -51 -27 -65 -27 -38 0 -61 -27 -54 -63 3 -16 6 -35
6 -42 0 -7 14 -29 30 -50 22 -28 30 -48 30 -79 0 -54 15 -104 39 -130 12 -13
23 -48 30 -95 12 -73 22 -103 47 -132 7 -8 18 -46 23 -83 11 -77 30 -113 66
-122 14 -3 69 -5 123 -2 77 3 105 8 134 25 20 12 63 24 95 28 34 4 73 17 93
30 19 12 48 26 64 29 16 4 64 37 107 74 71 60 79 70 85 112 4 25 15 61 25 80
24 44 24 111 0 158 -10 20 -21 58 -25 84 -5 33 -18 60 -41 88 -19 22 -37 49
-40 60 -4 11 -10 20 -15 20 -5 0 -24 13 -43 30 -19 16 -54 34 -78 39 -24 6
-62 19 -84 31 -33 17 -57 20 -150 19 -60 0 -123 -5 -138 -9z m288 -70 c10 -11
37 -26 59 -32 58 -17 154 -119 163 -171 3 -21 17 -55 31 -75 36 -52 44 -162
13 -184 -11 -8 -29 -33 -39 -56 -10 -23 -37 -59 -60 -80 -52 -47 -174 -110
-229 -118 -23 -3 -53 -14 -65 -24 -17 -13 -50 -20 -119 -25 -118 -9 -134 -2
-143 59 -4 27 -19 59 -37 82 -23 29 -29 47 -29 83 0 58 -14 108 -38 135 -12
13 -24 51 -31 96 -7 41 -18 84 -26 95 -8 11 -22 30 -31 42 -20 28 -12 70 20
104 20 21 37 27 96 33 39 3 88 14 108 23 65 29 74 31 208 32 119 1 133 -1 149
-19z"/>
<path d="M10584 1004 c-60 -21 -88 -54 -79 -93 4 -18 17 -44 30 -59 16 -19 26
-47 30 -83 10 -83 13 -95 39 -126 16 -19 26 -47 31 -90 9 -80 30 -102 83 -86
135 41 164 55 193 96 16 22 38 47 49 54 17 12 20 26 20 98 0 74 -3 87 -24 112
-14 16 -28 41 -31 56 -8 29 -26 45 -112 102 -47 32 -59 35 -120 34 -38 0 -86
-7 -109 -15z m207 -77 c19 -15 38 -31 42 -36 5 -5 21 -23 37 -40 25 -27 30
-42 35 -109 l7 -79 -38 -42 c-34 -36 -108 -81 -135 -81 -5 0 -18 19 -30 43
-12 23 -29 51 -39 62 -11 12 -20 45 -24 84 -8 67 -23 108 -50 130 -10 9 -13
23 -9 44 9 49 28 59 104 55 54 -3 72 -9 100 -31z"/>
<path d="M5161 1126 c-7 -9 -16 -37 -19 -64 -3 -29 -14 -58 -28 -75 -13 -16
-24 -32 -24 -35 1 -32 60 -50 167 -51 40 -1 58 -7 82 -27 41 -34 39 -58 -6
-89 -21 -14 -55 -36 -75 -50 -21 -14 -38 -29 -38 -33 0 -5 -16 -16 -35 -25
-19 -9 -35 -21 -35 -26 0 -5 -9 -13 -20 -16 -12 -4 -37 -22 -57 -40 -63 -58
-77 -70 -105 -87 -16 -10 -28 -27 -28 -38 0 -12 -10 -38 -22 -59 -12 -21 -19
-45 -15 -53 3 -9 32 -28 64 -43 46 -22 80 -29 168 -35 80 -6 121 -14 150 -29
27 -14 73 -23 145 -30 58 -5 125 -16 150 -26 35 -12 52 -14 73 -6 33 13 42 35
51 121 6 57 5 68 -11 81 -24 21 -105 48 -178 60 -93 15 -105 18 -105 32 0 15
42 60 91 99 68 54 215 169 266 208 62 47 83 76 83 110 0 14 9 33 20 43 24 20
26 62 4 71 -9 3 -48 9 -87 12 -45 4 -85 14 -105 26 -25 15 -63 23 -152 29 -87
7 -128 14 -152 28 -47 28 -198 40 -217 17z m234 -77 c26 -16 65 -24 153 -31
96 -9 129 -16 185 -42 37 -17 67 -34 67 -39 0 -10 -42 -71 -53 -75 -13 -6 -91
-70 -117 -96 -14 -14 -31 -26 -37 -26 -6 0 -20 -11 -30 -23 -10 -13 -28 -29
-40 -36 -23 -11 -56 -39 -103 -86 -14 -14 -30 -25 -36 -25 -6 0 -22 -12 -37
-27 -14 -16 -36 -35 -48 -44 -21 -14 -22 -19 -12 -42 16 -35 88 -56 216 -64
l98 -6 15 -36 c16 -39 7 -76 -21 -87 -8 -4 -51 1 -95 10 -44 9 -107 16 -140
16 -43 0 -71 6 -103 23 -33 18 -68 25 -137 30 -51 4 -99 12 -106 18 -8 6 -14
26 -14 44 0 28 9 41 63 87 34 30 91 77 127 104 36 27 93 71 127 99 34 27 80
64 103 80 22 17 56 46 75 65 l35 35 -21 18 c-15 12 -39 17 -78 17 -40 0 -69 7
-101 24 -25 12 -60 26 -79 30 -63 12 -75 35 -40 80 18 23 27 26 84 26 47 0 73
-6 100 -21z"/>
<path d="M9820 1023 c-55 -8 -68 -13 -74 -29 -10 -26 14 -146 36 -183 17 -27
23 -58 29 -143 4 -59 13 -129 19 -156 11 -42 10 -53 -4 -84 -44 -93 -84 -100
-155 -28 -49 50 -49 50 -56 132 -8 102 -19 148 -44 179 -14 18 -19 49 -24 128
-4 56 -12 109 -18 117 -22 27 -237 10 -286 -22 -28 -18 -31 -64 -5 -88 16 -14
20 -37 25 -139 6 -128 16 -170 48 -200 15 -14 19 -31 19 -78 0 -61 21 -129 40
-129 6 0 18 -16 27 -35 9 -19 20 -35 25 -35 4 0 22 -13 40 -29 18 -15 50 -31
70 -35 20 -4 58 -16 84 -28 39 -17 60 -19 111 -15 34 4 73 12 85 19 13 7 53
18 90 24 45 8 78 20 98 37 16 14 39 29 50 32 11 4 30 25 41 48 12 23 31 52 43
65 19 22 21 35 21 147 0 115 -2 126 -24 156 -21 28 -26 50 -33 148 -16 212
-30 232 -167 230 -47 -1 -97 -3 -111 -6z m190 -89 c6 -14 10 -55 10 -92 0 -81
13 -133 40 -157 18 -17 20 -31 20 -164 0 -141 -1 -146 -25 -171 -101 -105
-119 -120 -138 -120 -12 0 -46 -11 -75 -25 -64 -30 -192 -36 -228 -10 -12 8
-41 22 -66 32 -66 26 -133 107 -143 169 -8 55 -19 81 -46 107 -16 15 -19 33
-19 110 -1 51 -5 112 -11 137 -23 105 -23 122 -4 137 24 17 119 17 132 1 6 -7
13 -35 17 -63 3 -27 16 -68 27 -90 15 -28 25 -75 33 -163 11 -107 16 -126 37
-150 14 -15 30 -39 37 -54 7 -17 22 -30 39 -34 15 -4 37 -13 48 -20 25 -18 65
-18 90 0 11 7 35 17 53 21 50 11 55 29 50 219 -3 169 -4 172 -36 238 -33 69
-40 115 -22 149 9 16 22 19 91 19 76 0 80 -1 89 -26z"/>
<path d="M6052 973 c-7 -3 -26 -35 -43 -71 -23 -52 -32 -90 -40 -172 -5 -58
-6 -124 -3 -148 5 -35 2 -49 -19 -80 -30 -43 -43 -101 -51 -224 -6 -80 -4 -89
16 -113 31 -34 125 -51 331 -59 111 -4 166 -10 187 -21 39 -20 83 -19 108 3
22 18 52 107 52 152 0 36 -29 60 -71 60 -19 0 -54 7 -77 15 -24 9 -71 18 -105
22 -90 9 -108 31 -67 83 l19 25 32 -19 c24 -14 58 -20 129 -24 126 -6 134 1
143 114 8 107 7 108 -139 113 -114 3 -115 3 -129 32 -22 41 -19 55 14 69 39
16 91 10 118 -13 23 -20 122 -34 167 -23 27 7 29 15 41 128 4 50 2 61 -16 79
-17 17 -29 20 -62 16 -28 -4 -51 0 -76 13 -20 10 -76 23 -126 29 -99 12 -312
21 -333 14z m485 -89 c13 -8 30 -26 39 -40 16 -23 16 -28 1 -58 -11 -24 -24
-35 -47 -40 -52 -10 -69 -7 -100 15 -20 15 -48 23 -97 26 -79 6 -103 -7 -103
-58 0 -16 -5 -38 -12 -48 -6 -10 -8 -25 -5 -34 6 -17 142 -61 222 -73 28 -3
58 -11 68 -16 23 -12 22 -53 -3 -78 -30 -30 -174 -29 -225 1 -70 41 -96 13
-110 -118 l-6 -61 33 -10 c18 -6 85 -13 148 -17 106 -6 117 -9 143 -33 33 -31
35 -67 5 -86 -42 -26 -68 -28 -106 -10 -34 16 -194 32 -335 34 -44 0 -49 2
-61 32 -18 42 -10 289 10 301 24 14 44 110 51 243 l6 132 31 10 c47 16 425 4
453 -14z"/>
<path d="M8874 911 c-133 -7 -149 -16 -139 -76 3 -22 13 -51 22 -65 l16 -24
12 34 c14 44 62 70 127 70 68 0 78 -14 78 -113 1 -105 24 -271 44 -319 12 -27
16 -70 16 -157 0 -140 -1 -141 -97 -141 -87 0 -87 0 -93 144 -6 155 -13 166
-90 148 -29 -7 -96 -12 -150 -12 -109 0 -138 -13 -125 -54 4 -12 8 -65 10
-120 3 -93 2 -100 -21 -123 -33 -33 -30 -40 16 -54 35 -11 42 -10 61 7 20 18
21 26 16 141 -4 99 -2 125 10 134 8 7 49 14 91 17 103 6 105 2 112 -143 3 -73
10 -118 19 -129 19 -23 292 -24 311 -1 18 22 7 151 -24 267 -20 81 -24 123
-29 317 -6 238 -7 246 -57 254 -14 2 -75 1 -136 -2z"/>
<path d="M8390 878 c-14 -6 -53 -12 -87 -14 -34 -1 -71 -8 -83 -14 -26 -14
-26 -52 0 -75 19 -17 21 -16 83 24 35 22 71 41 79 41 34 0 55 -45 62 -136 7
-101 20 -134 60 -153 23 -10 37 -11 66 -2 21 6 82 11 137 11 120 0 139 9 130
64 -7 45 -37 109 -54 114 -12 3 -11 -7 2 -54 18 -61 -197 -111 -250 -58 -11
12 -15 38 -15 104 0 89 -11 138 -33 152 -17 11 -67 9 -97 -4z"/>
<path d="M7215 855 c-22 -21 -26 -32 -21 -57 3 -17 6 -158 6 -313 l0 -283 56
-66 c54 -63 82 -80 144 -88 17 -2 26 -10 28 -25 3 -23 5 -23 163 -23 133 0
159 2 159 15 0 18 24 31 71 40 49 9 132 87 149 140 7 22 22 50 34 63 20 23 21
34 24 299 2 198 0 278 -8 289 -10 11 -40 13 -141 11 -164 -4 -163 -3 -165
-130 -1 -162 -22 -414 -37 -450 -11 -26 -22 -36 -47 -41 -52 -10 -58 -8 -100
30 l-40 36 0 268 c0 319 6 302 -108 298 -43 -1 -91 1 -109 6 -27 7 -36 4 -58
-19z m169 -40 c14 -13 26 -32 26 -42 0 -10 1 -122 3 -250 l2 -232 58 -57 c55
-55 61 -58 116 -62 50 -4 61 -1 88 22 17 14 35 26 40 26 6 0 17 8 26 18 14 16
17 53 19 273 l3 254 45 23 c32 17 56 22 83 19 72 -10 71 -2 63 -281 l-7 -250
-30 -33 c-16 -19 -29 -39 -29 -46 0 -21 -62 -74 -103 -87 -20 -6 -42 -20 -47
-31 -10 -17 -23 -19 -153 -19 -131 0 -143 2 -155 20 -6 11 -27 26 -45 34 -57
25 -103 77 -111 125 -3 24 -13 56 -22 72 -18 36 -20 161 -4 339 11 123 12 125
46 158 40 38 53 40 88 7z"/>
<path d="M8230 593 c0 -87 5 -234 10 -328 9 -147 13 -173 30 -195 11 -14 25
-35 32 -47 9 -20 19 -23 65 -23 32 0 53 4 53 11 0 8 -68 84 -101 113 0 1 -3
89 -5 196 -7 317 -25 430 -69 430 -13 0 -15 -25 -15 -157z"/>
</g>
</svg>
